<?xml version="1.0" encoding="UTF-8" standalone="no"?>
<svg
   xmlns:dc="http://purl.org/dc/elements/1.1/"
   xmlns:cc="http://creativecommons.org/ns#"
   xmlns:rdf="http://www.w3.org/1999/02/22-rdf-syntax-ns#"
   xmlns:svg="http://www.w3.org/2000/svg"
   xmlns="http://www.w3.org/2000/svg"
   xmlns:sodipodi="http://sodipodi.sourceforge.net/DTD/sodipodi-0.dtd"
   xmlns:inkscape="http://www.inkscape.org/namespaces/inkscape"
   id="Firefox_-_Large"
   data-name="Firefox - Large"
   viewBox="0 0 1643.0358 1191.7373"
   version="1.1"
   sodipodi:docname="firefox.svg"
   inkscape:version="0.92.3 (2405546, 2018-03-11)"
   width="1643.0358"
   height="1191.7373">
  <metadata
     id="metadata230">
    <rdf:RDF>
      <cc:Work
         rdf:about="">
        <dc:format>image/svg+xml</dc:format>
        <dc:type
           rdf:resource="http://purl.org/dc/dcmitype/StillImage" />
        <dc:title>firefox-logo</dc:title>
      </cc:Work>
    </rdf:RDF>
  </metadata>
  <sodipodi:namedview
     pagecolor="#ffffff"
     bordercolor="#666666"
     borderopacity="1"
     objecttolerance="10"
     gridtolerance="10"
     guidetolerance="10"
     inkscape:pageopacity="0"
     inkscape:pageshadow="2"
     inkscape:window-width="1853"
     inkscape:window-height="1145"
     id="namedview228"
     showgrid="false"
     inkscape:zoom="0.65186408"
     inkscape:cx="474.83196"
     inkscape:cy="608.38034"
     inkscape:window-x="1267"
     inkscape:window-y="353"
     inkscape:window-maximized="1"
     inkscape:current-layer="g6514"
     fit-margin-top="0"
     fit-margin-left="0"
     fit-margin-right="0"
     fit-margin-bottom="0" />
  <defs
     id="defs194">
    <inkscape:path-effect
       effect="envelope"
       id="path-effect1857"
       is_visible="true"
       yy="true"
       xx="true"
       bendpath1="m 92.224982,-443.20333 c 0,0 542.779908,-416.54237 1180.610418,0"
       bendpath2="m 1272.8354,-443.20333 v 149.09965"
       bendpath3="m 96.563965,-155.25622 c 0,0 551.457875,-386.16949 1176.271435,-8.67797"
       bendpath4="m 92.224982,-443.20333 v 149.09965"
       bendpath1-nodetypes="cc"
       bendpath3-nodetypes="cc" />
    <radialGradient
       id="radial-gradient"
       cx="-14480.522"
       cy="-8329.0791"
       fx="-14509.281"
       r="450.875"
       gradientTransform="matrix(0.762,0.034,-0.05,1.12,11560.893,10069.103)"
       gradientUnits="userSpaceOnUse">
      <stop
         offset="0.045"
         stop-color="#ffea00"
         id="stop2" />
      <stop
         offset="0.12"
         stop-color="#ffde00"
         id="stop4" />
      <stop
         offset="0.254"
         stop-color="#ffbf00"
         id="stop6" />
      <stop
         offset="0.429"
         stop-color="#ff8e00"
         id="stop8" />
      <stop
         offset="0.769"
         stop-color="#ff272d"
         id="stop10" />
      <stop
         offset="0.872"
         stop-color="#e0255a"
         id="stop12" />
      <stop
         offset="0.953"
         stop-color="#cc2477"
         id="stop14" />
      <stop
         offset="1"
         stop-color="#c42482"
         id="stop16" />
    </radialGradient>
    <radialGradient
       id="radial-gradient-2"
       cx="-7529.6689"
       cy="-7921.6079"
       r="791.229"
       gradientTransform="matrix(1.225,0,0,1.225,9921.963,9899.103)"
       gradientUnits="userSpaceOnUse">
      <stop
         offset="0"
         stop-color="#00ccda"
         id="stop19" />
      <stop
         offset="0.22"
         stop-color="#0083ff"
         id="stop21" />
      <stop
         offset="0.261"
         stop-color="#007af9"
         id="stop23" />
      <stop
         offset="0.33"
         stop-color="#0060e8"
         id="stop25" />
      <stop
         offset="0.333"
         stop-color="#005fe7"
         id="stop27" />
      <stop
         offset="0.438"
         stop-color="#2639ad"
         id="stop29" />
      <stop
         offset="0.522"
         stop-color="#401e84"
         id="stop31" />
      <stop
         offset="0.566"
         stop-color="#4a1475"
         id="stop33" />
    </radialGradient>
    <linearGradient
       id="linear-gradient"
       x1="575.66901"
       y1="731.18799"
       x2="384.23099"
       y2="104.96"
       gradientUnits="userSpaceOnUse">
      <stop
         offset="0"
         stop-color="#000f43"
         stop-opacity="0.4"
         id="stop36" />
      <stop
         offset="0.485"
         stop-color="#001962"
         stop-opacity="0.173"
         id="stop38" />
      <stop
         offset="1"
         stop-color="#002079"
         stop-opacity="0"
         id="stop40" />
    </linearGradient>
    <radialGradient
       id="radial-gradient-3"
       cx="-8260.9404"
       cy="-6516.5562"
       r="266.88599"
       gradientTransform="matrix(1.219,0.123,-0.123,1.219,10296.265,9597.23)"
       gradientUnits="userSpaceOnUse">
      <stop
         offset="0.003"
         stop-color="#ffea00"
         id="stop43" />
      <stop
         offset="0.497"
         stop-color="#ff272d"
         id="stop45" />
      <stop
         offset="1"
         stop-color="#c42482"
         id="stop47" />
    </radialGradient>
    <radialGradient
       id="radial-gradient-4"
       cx="-8285.0869"
       cy="-6772.4678"
       r="445.67801"
       gradientTransform="matrix(1.219,0.123,-0.123,1.219,10296.265,9597.23)"
       gradientUnits="userSpaceOnUse">
      <stop
         offset="0.003"
         stop-color="#ffe900"
         id="stop50" />
      <stop
         offset="0.157"
         stop-color="#ffaf0e"
         id="stop52" />
      <stop
         offset="0.316"
         stop-color="#ff7a1b"
         id="stop54" />
      <stop
         offset="0.472"
         stop-color="#ff4e26"
         id="stop56" />
      <stop
         offset="0.621"
         stop-color="#ff2c2e"
         id="stop58" />
      <stop
         offset="0.762"
         stop-color="#ff1434"
         id="stop60" />
      <stop
         offset="0.892"
         stop-color="#ff0538"
         id="stop62" />
      <stop
         offset="1"
         stop-color="#ff0039"
         id="stop64" />
    </radialGradient>
    <radialGradient
       id="radial-gradient-5"
       cx="-8222.0508"
       cy="-6359.332"
       r="408.95801"
       gradientTransform="matrix(1.219,0.123,-0.123,1.219,10296.265,9597.23)"
       gradientUnits="userSpaceOnUse">
      <stop
         offset="0.003"
         stop-color="#ff272d"
         id="stop67" />
      <stop
         offset="0.497"
         stop-color="#c42482"
         id="stop69" />
      <stop
         offset="0.986"
         stop-color="#620700"
         id="stop71" />
    </radialGradient>
    <radialGradient
       id="radial-gradient-6"
       cx="750.18903"
       cy="396.04099"
       fx="778.1665"
       fy="382.2124"
       r="782.17999"
       gradientUnits="userSpaceOnUse">
      <stop
         offset="0.156"
         stop-color="#ffea00"
         id="stop74" />
      <stop
         offset="0.231"
         stop-color="#ffde00"
         id="stop76" />
      <stop
         offset="0.365"
         stop-color="#ffbf00"
         id="stop78" />
      <stop
         offset="0.541"
         stop-color="#ff8e00"
         id="stop80" />
      <stop
         offset="0.763"
         stop-color="#ff272d"
         id="stop82" />
      <stop
         offset="0.796"
         stop-color="#f92433"
         id="stop84" />
      <stop
         offset="0.841"
         stop-color="#e91c45"
         id="stop86" />
      <stop
         offset="0.893"
         stop-color="#cf0e62"
         id="stop88" />
      <stop
         offset="0.935"
         stop-color="#b5007f"
         id="stop90" />
    </radialGradient>
    <radialGradient
       id="radial-gradient-7"
       cx="691.33899"
       cy="3.289"
       r="923.61499"
       gradientUnits="userSpaceOnUse">
      <stop
         offset="0.279"
         stop-color="#ffea00"
         id="stop93" />
      <stop
         offset="0.402"
         stop-color="#fd0"
         id="stop95" />
      <stop
         offset="0.63"
         stop-color="#ffba00"
         id="stop97" />
      <stop
         offset="0.856"
         stop-color="#ff9100"
         id="stop99" />
      <stop
         offset="0.933"
         stop-color="#ff6711"
         id="stop101" />
      <stop
         offset="0.994"
         stop-color="#ff4a1d"
         id="stop103" />
    </radialGradient>
    <linearGradient
       id="linear-gradient-2"
       x1="-8944.6504"
       y1="-6677.7422"
       x2="-8660.2891"
       y2="-6750.2261"
       gradientTransform="matrix(1.219,0.123,-0.123,1.219,10296.265,9597.23)"
       gradientUnits="userSpaceOnUse">
      <stop
         offset="0"
         stop-color="#c42482"
         stop-opacity="0.5"
         id="stop106" />
      <stop
         offset="0.474"
         stop-color="#ff272d"
         stop-opacity="0.5"
         id="stop108" />
      <stop
         offset="0.486"
         stop-color="#ff2c2c"
         stop-opacity="0.513"
         id="stop110" />
      <stop
         offset="0.675"
         stop-color="#ff7a1a"
         stop-opacity="0.72"
         id="stop112" />
      <stop
         offset="0.829"
         stop-color="#ffb20d"
         stop-opacity="0.871"
         id="stop114" />
      <stop
         offset="0.942"
         stop-color="#ffd605"
         stop-opacity="0.964"
         id="stop116" />
      <stop
         offset="1"
         stop-color="#ffe302"
         id="stop118" />
    </linearGradient>
    <linearGradient
       id="linear-gradient-3"
       x1="245.347"
       y1="-1082.012"
       x2="190.77499"
       y2="-1221.859"
       gradientTransform="matrix(0.995,0.1,-0.1,0.995,-173.696,1313.941)"
       gradientUnits="userSpaceOnUse">
      <stop
         offset="0"
         stop-color="#891551"
         stop-opacity="0.6"
         id="stop121" />
      <stop
         offset="1"
         stop-color="#c42482"
         stop-opacity="0"
         id="stop123" />
    </linearGradient>
    <linearGradient
       id="linear-gradient-4"
       x1="22.040001"
       y1="718.82703"
       x2="116.148"
       y2="825.71399"
       gradientTransform="matrix(0.995,0.1,-0.1,0.995,305.439,-246.471)"
       gradientUnits="userSpaceOnUse">
      <stop
         offset="0.005"
         stop-color="#891551"
         stop-opacity="0.5"
         id="stop126" />
      <stop
         offset="0.484"
         stop-color="#ff272d"
         stop-opacity="0.5"
         id="stop128" />
      <stop
         offset="1"
         stop-color="#ff272d"
         stop-opacity="0"
         id="stop130" />
    </linearGradient>
    <linearGradient
       id="linear-gradient-5"
       x1="200.104"
       y1="904.61603"
       x2="200.17101"
       y2="829.83502"
       gradientTransform="matrix(0.995,0.1,-0.1,0.995,305.439,-246.471)"
       gradientUnits="userSpaceOnUse">
      <stop
         offset="0"
         stop-color="#c42482"
         id="stop133" />
      <stop
         offset="0.083"
         stop-color="#c42482"
         stop-opacity="0.81"
         id="stop135" />
      <stop
         offset="0.206"
         stop-color="#c42482"
         stop-opacity="0.565"
         id="stop137" />
      <stop
         offset="0.328"
         stop-color="#c42482"
         stop-opacity="0.362"
         id="stop139" />
      <stop
         offset="0.447"
         stop-color="#c42482"
         stop-opacity="0.204"
         id="stop141" />
      <stop
         offset="0.562"
         stop-color="#c42482"
         stop-opacity="0.091"
         id="stop143" />
      <stop
         offset="0.673"
         stop-color="#c42482"
         stop-opacity="0.023"
         id="stop145" />
      <stop
         offset="0.773"
         stop-color="#c42482"
         stop-opacity="0"
         id="stop147" />
    </linearGradient>
    <linearGradient
       id="linear-gradient-6"
       x1="655.53101"
       y1="38.119999"
       x2="961.18701"
       y2="721.61499"
       gradientUnits="userSpaceOnUse">
      <stop
         offset="0"
         stop-color="#fff14f"
         id="stop150" />
      <stop
         offset="0.268"
         stop-color="#ffee4c"
         id="stop152" />
      <stop
         offset="0.452"
         stop-color="#ffe643"
         id="stop154" />
      <stop
         offset="0.612"
         stop-color="#ffd834"
         id="stop156" />
      <stop
         offset="0.757"
         stop-color="#ffc41e"
         id="stop158" />
      <stop
         offset="0.892"
         stop-color="#ffab02"
         id="stop160" />
      <stop
         offset="0.902"
         stop-color="#ffa900"
         id="stop162" />
      <stop
         offset="0.949"
         stop-color="#ffa000"
         id="stop164" />
      <stop
         offset="1"
         stop-color="#ff9100"
         id="stop166" />
    </linearGradient>
    <linearGradient
       id="linear-gradient-7"
       x1="715.88501"
       y1="431.20999"
       x2="571.09802"
       y2="819.96002"
       gradientUnits="userSpaceOnUse">
      <stop
         offset="0"
         stop-color="#ff8e00"
         id="stop169" />
      <stop
         offset="0.04"
         stop-color="#ff8e00"
         stop-opacity="0.858"
         id="stop171" />
      <stop
         offset="0.084"
         stop-color="#ff8e00"
         stop-opacity="0.729"
         id="stop173" />
      <stop
         offset="0.13"
         stop-color="#ff8e00"
         stop-opacity="0.628"
         id="stop175" />
      <stop
         offset="0.178"
         stop-color="#ff8e00"
         stop-opacity="0.557"
         id="stop177" />
      <stop
         offset="0.227"
         stop-color="#ff8e00"
         stop-opacity="0.514"
         id="stop179" />
      <stop
         offset="0.282"
         stop-color="#ff8e00"
         stop-opacity="0.5"
         id="stop181" />
      <stop
         offset="0.389"
         stop-color="#ff8e00"
         stop-opacity="0.478"
         id="stop183" />
      <stop
         offset="0.524"
         stop-color="#ff8e00"
         stop-opacity="0.416"
         id="stop185" />
      <stop
         offset="0.676"
         stop-color="#ff8e00"
         stop-opacity="0.314"
         id="stop187" />
      <stop
         offset="0.838"
         stop-color="#ff8e00"
         stop-opacity="0.172"
         id="stop189" />
      <stop
         offset="1"
         stop-color="#ff8e00"
         stop-opacity="0"
         id="stop191" />
    </linearGradient>
  </defs>
  <title
     id="title196">firefox-logo</title>
  <g
     id="g6514"
     transform="rotate(33.428579,309.66509,191.07692)">
    <path
       style="opacity:1;vector-effect:none;fill:#303378;fill-opacity:1;stroke-width:2.28387737;stroke-linecap:butt;stroke-linejoin:miter;stroke-miterlimit:4;stroke-dasharray:none;stroke-dashoffset:0;stroke-opacity:1"
       id="path1729"
       d="m 238.93419,341.22132 c -2.12743,-7.65054 -4.08631,-15.18756 -5.84079,-22.20683 l -0.46066,-1.19835 c -6.97085,-25.19779 -17.44402,-64.11392 -26.07297,-96.3175 -3.22369,-11.9931 -6.20712,-23.12334 -8.63328,-32.17549 -2.25556,-8.5401 -4.11121,-15.28508 -5.20976,-19.33668 l -1.19743,-4.37385 c -1.51421,-5.60623 -5.42535,-20.45441 7.32599,-29.59677 l 0.29188,-0.21331 7.281,-7.41232 c 0.59746,-0.54471 1.22439,-1.08279 1.84423,-1.61973 0.67169,-0.58285 1.30295,-1.17597 1.99954,-1.75219 1.79261,-1.4795 3.67978,-2.94529 5.60714,-4.40766 0.5728,-0.43348 1.11202,-0.87495 1.69373,-1.30866 2.50495,-1.86684 5.07477,-3.73162 7.68753,-5.61856 11.77613,-8.52092 25.04614,-18.14267 35.12626,-30.77708 5.34884,-6.82491 6.40491,-11.01788 5.58705,-12.63327 -0.75939,-1.57701 -5.1892,-4.22996 -17.04435,-4.22996 -14.37746,0 -31.88681,3.98833 -37.3165,6.60131 l -0.005,0.002 -0.12584,0.0473 C 192.07568,82.44794 174.01386,94.7441 154.89621,107.77614 110.3099,138.09255 63.648,169.12565 0,166.53345 c 11.89512,24.46877 48.29966,92.04551 97.81938,113.04256 l 4.40308,1.87575 -0.85599,4.67281 c -0.29851,1.69487 -0.75917,4.94688 -1.35686,9.25884 -6.80458,49.77574 -14.591,85.92061 -28.38014,97.19565 9.33649,9.04347 20.43865,13.53197 34.50619,14.05178 4.11555,0.30125 7.98398,0.45952 11.67952,0.45952 47.2573,0 85.1402,-21.65504 125.15465,-44.60755 l 2.03539,-1.13783 c -1.68482,-5.04782 -3.14284,-10.20025 -4.62577,-15.32915 -0.46614,-1.6195 -0.99417,-3.18076 -1.44569,-4.79477 z"
       inkscape:connector-curvature="0" />
    <path
       style="opacity:1;vector-effect:none;fill:#282a63;fill-opacity:1;stroke-width:2.28387737;stroke-linecap:butt;stroke-linejoin:miter;stroke-miterlimit:4;stroke-dasharray:none;stroke-dashoffset:0;stroke-opacity:1"
       id="path1731"
       d="m 269.85058,58.59721 c 0.69635,0.39534 1.46922,0.74797 2.0733,1.20086 1.93445,1.44547 3.52266,3.10927 4.5536,5.12205 0.0338,0.0628 0.11259,0.0977 0.14365,0.16284 0.82014,1.69852 1.28742,3.48657 1.41098,5.37237 0.2494,3.75606 -0.90304,7.90769 -3.46624,12.51428 -1.28262,2.3058 -2.91605,4.72214 -4.91102,7.26181 -11.03478,13.95289 -25.10666,24.09148 -37.49852,33.03012 -3.68869,2.68356 -7.12798,5.20975 -10.36515,7.70192 -1.10311,0.84595 -2.22404,1.69738 -3.2575,2.53076 -1.02888,0.83453 -1.9365,1.66016 -2.88682,2.49149 -0.96836,0.84457 -1.93421,1.69144 -2.8151,2.53738 -0.92315,0.89072 -1.7273,1.78919 -2.53625,2.68447 -0.4739,0.5189 -0.9099,1.04122 -1.33881,1.56446 0.18865,0.48532 0.39534,0.99189 0.70526,1.58158 0.0811,0.15622 0.12356,0.28321 0.21788,0.44947 0.48967,0.85805 1.19972,1.81066 2.01507,2.77651 0.68973,0.78977 1.58387,1.58593 2.54972,2.38688 0.36633,0.31449 0.67169,0.62578 1.08279,0.93548 1.04464,0.76395 2.3364,1.49297 3.69759,2.19823 0.42686,0.22907 0.83339,0.457 1.29633,0.67717 1.45575,0.6774 3.13851,1.28262 4.95145,1.84332 0.64908,0.20212 1.34771,0.38529 2.04864,0.56731 1.86912,0.48396 3.90223,0.90305 6.14637,1.22325 1.12526,0.1585 2.41497,0.23249 3.64369,0.34052 2.17014,0.19527 4.35376,0.38849 6.85209,0.40996 3.99199,0.0137 8.25576,-0.11808 13.17798,-0.64908 14.31465,-1.94997 29.31013,-5.04691 45.08259,-8.98043 2.83955,-0.71212 5.51054,-1.25362 8.4266,-2.03768 4.90873,-1.31414 10.18358,-2.97201 15.30768,-4.48394 4.9647,-1.47355 9.78345,-2.81579 14.98863,-4.48622 4.84342,-1.55783 10.08675,-3.42695 15.14599,-5.15813 4.83885,-1.65444 9.61969,-3.26206 14.67209,-5.08368 -0.74135,-1.99611 -1.48293,-3.94152 -2.24232,-5.85107 -1.03094,-2.58238 -2.04863,-5.20518 -3.11794,-7.62906 -1.11865,-2.53853 -2.28913,-4.86923 -3.45071,-7.23373 -1.18831,-2.41177 -2.36108,-4.87151 -3.59437,-7.10446 -1.13006,-2.05115 -2.32293,-3.89218 -3.4957,-5.79145 -1.35457,-2.19252 -2.69132,-4.4458 -4.10413,-6.44191 -1.15245,-1.63525 -2.37478,-3.05742 -3.56742,-4.56158 -1.51877,-1.91504 -3.017,-3.88853 -4.60087,-5.59824 -1.21525,-1.31186 -2.50724,-2.39922 -3.76497,-3.59094 -1.65581,-1.56926 -3.2865,-3.21593 -5.01197,-4.57849 -1.34566,-1.06155 -2.7813,-1.88123 -4.17401,-2.81831 -1.73438,-1.17254 -3.44158,-2.44192 -5.24767,-3.42147 -1.69395,-0.91424 -3.50004,-1.55555 -5.25908,-2.30147 -1.61744,-0.68859 -3.18099,-1.51512 -4.84799,-2.06439 -3.49776,-1.14354 -7.11016,-2.00959 -10.85961,-2.55087 -6.8361,-0.99737 -13.59363,-1.51421 -20.3128,-1.55235 -0.96151,-0.005 -1.90955,0.15942 -2.86878,0.17198 -5.7307,0.09 -11.44359,0.40561 -17.14529,1.24014 -0.13909,0.0206 -0.27864,0.0651 -0.41772,0.0866 0.51204,0.12562 0.79524,0.39306 1.28034,0.53237 2.15255,0.62898 4.03492,1.42651 5.68845,2.37341 z"
       inkscape:connector-curvature="0" />
    <path
       style="opacity:1;vector-effect:none;fill:#282a63;fill-opacity:1;stroke-width:2.28387737;stroke-linecap:butt;stroke-linejoin:miter;stroke-miterlimit:4;stroke-dasharray:none;stroke-dashoffset:0;stroke-opacity:1"
       id="path1733"
       d="m 1550.1341,137.6808 c 4.4595,1.43313 8.5771,2.57324 12.8612,3.86272 5.677,1.70514 11.4865,3.52471 16.8849,4.97817 4.0818,1.09854 7.8671,1.90064 11.8052,2.85759 5.0323,1.22781 10.1835,2.57552 15.0044,3.58203 8.4848,1.74009 17.0171,3.37534 25.4819,4.47069 l 1.2782,0.10003 v -0.0183 c 4.9762,0.50314 9.2735,0.61985 13.2904,0.59084 1.8467,-0.0183 3.4685,-0.14731 5.1264,-0.25488 1.9006,-0.12698 3.7428,-0.27658 5.4119,-0.51227 1.5523,-0.2124 3.0777,-0.44033 4.4391,-0.7345 1.6737,-0.36519 3.1698,-0.79753 4.5826,-1.26024 1.1189,-0.36177 2.2556,-0.71006 3.226,-1.11522 1.7188,-0.73906 3.2621,-1.52335 4.5536,-2.36107 0.5662,-0.35948 1.0312,-0.7313 1.5254,-1.10426 0.9346,-0.71325 1.7883,-1.42765 2.4869,-2.15004 0.3145,-0.32568 0.6514,-0.65136 0.9277,-0.96836 0.7818,-0.92657 1.4334,-1.83304 1.9052,-2.66095 0.1348,-0.24392 0.2357,-0.4538 0.3479,-0.68516 0.2674,-0.5358 0.4675,-1.01084 0.6246,-1.4578 -0.4246,-0.52232 -0.8649,-1.04464 -1.3256,-1.5624 -0.8512,-0.94484 -1.7051,-1.89288 -2.6753,-2.83178 -0.8089,-0.77378 -1.6942,-1.55235 -2.5812,-2.32841 -0.9885,-0.87404 -1.95,-1.74671 -3.0216,-2.62395 -1.3929,-1.12915 -2.8845,-2.27817 -4.4099,-3.42833 -0.6717,-0.5109 -1.2939,-1.01198 -1.9836,-1.52974 -2.3453,-1.73894 -4.7941,-3.51123 -7.3415,-5.34998 -12.2706,-8.92197 -26.3201,-19.05919 -37.3818,-32.93123 -1.9861,-2.53533 -3.6213,-4.9503 -4.8973,-7.25268 -2.561,-4.6043 -3.7111,-8.76141 -3.4528,-12.5177 0.1281,-1.88808 0.6089,-3.67864 1.4402,-5.37693 1.0469,-2.17563 2.8014,-3.91663 4.9019,-5.44317 0.5502,-0.40219 1.2287,-0.71417 1.8488,-1.06931 1.7903,-1.02112 3.8641,-1.85771 6.2341,-2.50496 0.5056,-0.13909 0.8064,-0.41772 1.3433,-0.54128 -4.8365,-0.71987 -9.7679,-0.93342 -14.7011,-1.11544 -1.6825,-0.064 -3.3696,-0.36268 -5.059,-0.36382 -6.8518,0.005 -13.8026,0.50542 -20.8474,1.49731 -0.8919,0.12698 -1.6581,0.35811 -2.5139,0.51204 -2.9585,0.51228 -5.8858,1.2164 -8.7525,2.17014 -1.5028,0.48738 -3.0325,0.93913 -4.4816,1.52655 -0.099,0.0393 -0.1999,0.0706 -0.3013,0.11465 -13.8227,6.07991 -25.2551,16.4736 -35.0746,31.8473 -0.3054,0.47413 -0.6087,0.90441 -0.9074,1.38722 -1.4624,2.35559 -2.8619,4.91445 -4.246,7.49889 -0.6244,1.14787 -1.2445,2.25441 -1.8488,3.45299 -1.1593,2.28456 -2.267,4.72671 -3.3787,7.18645 -0.7414,1.64462 -1.4896,3.27097 -2.2172,4.99621 -1.0314,2.44854 -2.0242,5.0364 -3.0239,7.64573 -0.4177,1.11088 -0.8402,2.23889 -1.2534,3.37763 4.6055,1.67134 8.9521,3.13508 13.3867,4.66596 5.6255,1.94038 11.4034,4.00958 16.7589,5.7339 z"
       inkscape:connector-curvature="0" />
    <path
       style="opacity:1;vector-effect:none;fill:#303378;fill-opacity:1;stroke-width:2.28387737;stroke-linecap:butt;stroke-linejoin:miter;stroke-miterlimit:4;stroke-dasharray:none;stroke-dashoffset:0;stroke-opacity:1"
       id="path1735"
       d="m 1891.0514,166.4122 c -63.8857,2.95648 -110.4492,-28.44066 -155.033,-58.81692 -18.9244,-12.91144 -37.0828,-25.24826 -56.2656,-34.86772 v 0.10003 c 0,0 0,0 -0.058,0 -3.7561,-1.93421 -13.9888,-4.56044 -24.9069,-5.89606 -0.4807,-0.0607 -0.9592,-0.13703 -1.4448,-0.19207 -0.5572,-0.0619 -1.1074,-0.0932 -1.6622,-0.14617 -3.2686,-0.31677 -6.5462,-0.53123 -9.687,-0.53123 -11.9152,0 -16.3455,2.65638 -17.1024,4.25258 -0.7797,1.65673 0.2357,5.78575 5.5464,12.6118 10.06,12.5748 23.33,22.17417 35.0678,30.65694 2.6486,1.91869 5.2502,3.81225 7.7864,5.70604 0.5077,0.38095 0.9796,0.7683 1.4827,1.14811 1.9591,1.48703 3.8776,2.98114 5.6974,4.48507 0.8379,0.69522 1.5994,1.41167 2.3969,2.11054 1.3818,1.2052 2.734,2.41588 3.9877,3.6526 0.8918,0.88409 1.6804,1.80404 2.5026,2.70936 0.6761,0.7514 1.4512,1.47493 2.0738,2.24094 l 0.2202,0.18203 c 8.4446,5.36574 11.2302,16.22512 7.6402,29.81533 l -1.2175,4.39327 c -0.6224,2.30923 -1.5252,5.67795 -2.5721,9.57904 -0.7437,2.80346 -1.5277,5.76884 -2.4554,9.24102 -7.7773,29.12469 -21.2835,79.49789 -30.9815,114.94321 -1.3726,5.02407 -2.671,9.74759 -3.8659,14.0664 l -2.4579,9.00053 c -2.3141,9.33992 -4.6276,17.58334 -6.8834,25.08999 l -2.233,8.18062 v -1.01655 c -0.2356,0.71668 -0.4606,1.36256 -0.692,2.05891 l 1.9703,1.09398 c 43.3058,24.80816 83.9627,48.39856 136.6903,44.24944 14.2697,-0.49743 25.4687,-5.03001 34.8321,-14.0945 -13.7553,-11.27413 -21.4945,-47.05837 -28.3013,-96.27593 -0.6987,-4.73105 -1.1774,-8.26238 -1.5414,-10.10022 l -0.8964,-4.70867 4.3919,-1.87803 c 49.6135,-20.97536 86.0809,-88.57379 97.9714,-113.04371 z"
       inkscape:connector-curvature="0" />
    <path
       style="fill:#303378;fill-opacity:1;stroke-width:2.28387737"
       id="path1737"
       d="m 1648.0636,310.27112 c 5.9104,-21.66075 13.9666,-51.55807 21.2878,-78.81044 4.5243,-16.8509 8.7659,-32.69781 12.039,-44.92774 0.9818,-3.62018 1.8175,-6.7226 2.5657,-9.47558 0.6714,-2.4924 1.2625,-4.64016 1.7949,-6.51271 -3.8369,0.38301 -8.0155,0.26859 -12.003,0.42343 -2.7251,0.10872 -5.156,0.5728 -7.9593,0.5728 -1.386,0 -2.8509,-0.11899 -4.2436,-0.14388 -1.0716,-0.0206 -2.1971,-0.0788 -3.2776,-0.11466 -8.1683,-0.25716 -16.5568,-0.82219 -25.6594,-1.96116 -0.1126,-0.009 -0.2001,-0.005 -0.3147,-0.016 l -1.7385,-0.15827 c -0.097,-0.016 -0.2044,-0.0395 -0.3101,-0.0562 l -0.047,-0.005 c -1.5389,-0.20327 -3.0867,-0.502 -4.6235,-0.73016 -26.0862,-3.79877 -52.4915,-10.73696 -75.808,-18.08077 -14.7482,-4.63924 -28.2185,-9.39724 -39.5787,-13.56121 l -1.1369,-0.40219 -0.1368,-0.037 -0.081,-0.0425 -2.5924,-0.91767 v -0.21925 l -2.0601,-0.6975 0.067,-0.20783 c -23.6016,-8.82216 -46.1654,-18.00791 -66.1459,-26.25477 -16.9655,-6.94413 -32.2101,-13.21383 -44.9678,-17.92592 l -17.8844,-6.46429 C 1270.412,45.54325 1151.4759,2.45562 945.44935,0 738.98045,2.45539 620.04411,45.62524 515.1036,83.7057 l -17.38556,6.32497 c -12.78697,4.69085 -28.03847,10.96055 -45.14357,17.96292 -20.07688,8.25485 -42.76195,17.5025 -66.44005,26.366 l 0.0228,0.0607 -1.4377,0.52095 -9.10513,3.59231 c -26.34247,9.43972 -49.53981,16.5476 -70.65928,21.77654 -15.00873,3.7113 -29.15507,6.60475 -42.36433,8.40421 -0.76145,0.111 -1.59483,0.3065 -2.35194,0.4111 l -1.61767,0.17951 c -0.20189,0.0183 -0.35263,0.007 -0.55932,0.0292 -9.00396,1.12663 -17.54063,1.70057 -25.72925,1.95682 -0.94347,0.0292 -1.87575,0.0797 -2.81488,0.0989 -1.4377,0.0258 -2.98343,0.1505 -4.38755,0.1505 -2.85074,0 -5.33765,-0.46956 -8.10526,-0.58398 -3.98285,-0.15051 -8.19957,-0.0438 -11.95358,-0.41224 0.005,0.016 0.0114,0.0448 0.0183,0.0628 0.29645,1.03917 0.63812,2.29256 0.97522,3.51603 0.92999,3.36187 1.97669,7.18531 3.30225,12.12762 8.53668,31.97451 42.96864,160.28776 48.39628,175.83229 8.95897,25.66849 18.63918,41.67368 29.64039,49.04101 14.52797,9.51943 33.09087,14.40784 54.96493,14.40784 48.17839,0 103.14333,-22.61107 143.35578,-39.13949 11.41893,-4.66825 21.49905,-8.81874 29.77719,-11.77522 l 0.1416,0.17769 c 4.91079,-2.49148 16.04881,-6.26331 40.89282,-14.72827 21.83159,-7.42466 53.87119,-17.84165 82.57245,-25.28435 101.26734,-26.80404 198.5612,-39.43959 306.34125,-39.71457 107.89501,0.27521 205.19091,12.92972 306.27871,39.7349 28.7036,7.46188 60.8352,17.86289 82.6666,25.26402 24.8284,8.46496 35.9664,12.23679 40.8549,14.72827 l 0.1368,-0.17769 c 8.247,2.95648 18.3045,7.0855 29.6831,11.73456 40.2166,16.5467 95.3031,39.18015 143.4611,39.18015 21.8922,0 40.4327,-4.88841 54.9855,-14.42908 11.0931,-7.40456 20.8137,-23.48945 29.6984,-49.13785 4.3693,-12.69379 8.6425,-27.68242 13.3532,-47.14265 z"
       inkscape:connector-curvature="0" />
    <g
       transform="matrix(0.46750662,0,0,0.46750662,706.31078,303.58108)"
       id="g225">
      <path
         inkscape:connector-curvature="0"
         id="path198"
         style="fill:url(#radial-gradient)"
         d="m 805.285,93.558 c -23.947,27.884 -35.1,90.639 -10.818,154.256 24.282,63.617 61.5,49.8 84.7,114.673 30.623,85.6 16.369,200.589 16.369,200.589 0,0 36.814,106.609 62.468,-6.633 C 1014.787,343.74 805.285,145.937 805.285,93.558 Z" />
      <path
         inkscape:connector-curvature="0"
         style="fill:url(#radial-gradient-2)"
         d="m 513.072,976.638 c 245.236,0 443.9,-199.739 443.9,-446.028 C 956.972,284.321 758.308,84.583 513.31,84.583 268.312,84.583 69.65,284.322 69.65,530.61 69.175,777.137 268.073,976.638 513.072,976.638 Z"
         data-name="&lt;Path&gt;"
         id="_Path_" />
      <path
         inkscape:connector-curvature="0"
         id="path201"
         style="fill:url(#linear-gradient)"
         d="m 845.675,805.636 a 246.888,246.888 0 0 1 -30.123,18.183 704,704 0 0 0 38.3,-62.961 c 9.46,-10.47 18.126,-20.648 25.188,-31.653 3.437,-5.407 7.313,-12.079 11.416,-19.819 24.921,-44.9 52.4,-117.563 53.179,-192.2 v -0.18 c 0.018,-1.837 0.029,-3.675 0.014,-5.515 a 257.6,257.6 0 0 0 -5.712,-55.748 c 0.2,1.431 0.376,2.861 0.556,4.291 -0.221,-1.1 -0.407,-2.212 -0.644,-3.314 0.366,2.034 0.66,4 0.976,5.983 5.094,43.217 1.466,85.372 -16.682,116.45 -0.286,0.454 -0.58,0.879 -0.869,1.323 9.41,-47.234 12.558,-99.387 2.088,-151.6 0,0 -4.187,-25.383 -35.376,-102.441 -17.952,-44.353 -49.833,-80.716 -78,-107.207 -24.69,-30.546 -47.114,-51.045 -59.475,-64.06 -25.821,-27.189 -36.643,-47.569 -41.087,-60.867 -3.853,-1.932 -53.135,-49.807 -57.05,-51.631 -21.511,33.352 -89.162,137.675 -56.981,235.146 14.584,44.172 51.467,90.017 90.067,115.736 1.695,1.936 22.969,25.042 33.086,77.157 10.446,53.842 4.954,95.855 -16.546,157.983 -25.286,54.505 -90.067,108.388 -150.724,113.9 -129.676,11.781 -177.149,-65.108 -177.149,-65.108 46.336,18.525 97.568,14.65 128.724,-4.556 31.4,-19.425 50.394,-33.827 65.81,-28.148 15.2,5.653 27.3,-10.756 16.442,-27.767 a 78.5,78.5 0 0 0 -79.4,-34.573 c -31.433,5.109 -60.226,30.009 -101.412,5.894 a 85.528,85.528 0 0 1 -7.729,-5.062 c -2.715,-1.785 8.826,2.717 6.133,0.688 -8.015,-4.354 -22.2,-13.842 -25.88,-17.217 -0.613,-0.562 6.219,2.179 5.606,1.616 -38.51,-31.712 -33.7,-53.134 -32.49,-66.57 0.969,-10.749 7.964,-24.523 19.751,-30.11 5.693,3.107 9.24,5.479 9.24,5.479 0,0 -2.428,-4.961 -3.741,-7.576 0.46,-0.2 0.9,-0.147 1.358,-0.342 4.664,2.251 14.977,8.1 20.407,11.667 7.072,4.988 9.326,9.436 9.326,9.436 0,0 1.862,-1.025 0.485,-5.375 -0.5,-1.784 -2.647,-7.453 -9.652,-13.174 l 0.438,0.049 a 81.2,81.2 0 0 1 11.867,8.241 c 1.975,-7.181 5.527,-14.679 4.746,-28.092 -0.477,-9.431 -0.257,-11.873 -1.919,-15.515 -1.488,-3.128 0.834,-4.348 3.418,-1.1 a 32.826,32.826 0 0 0 -2.208,-7.4 l 0.022,-0.244 c 3.225,-11.236 68.248,-40.461 72.981,-43.877 a 67.355,67.355 0 0 0 19.132,-20.8 c 3.617,-5.763 6.337,-13.848 7,-26.112 0.355,-8.844 -3.759,-14.734 -69.507,-21.618 -17.981,-1.771 -28.531,-14.8 -34.526,-26.823 -1.094,-2.59 -2.209,-4.937 -3.325,-7.282 a 58,58 0 0 1 -2.558,-8.431 c 10.749,-30.873 28.81,-56.977 55.367,-76.7 1.447,-1.318 -5.782,0.338 -4.336,-0.98 1.687,-1.538 12.706,-5.977 14.787,-6.977 2.542,-1.2 -10.882,-6.9 -22.732,-5.512 -12.069,1.36 -14.632,2.8 -21.073,5.531 2.673,-2.661 11.173,-6.149 9.18,-6.126 -13.011,1.995 -29.179,9.558 -43,18.124 a 10.731,10.731 0 0 1 0.835,-4.348 c -6.441,2.732 -22.26,13.788 -26.865,23.142 a 44.329,44.329 0 0 0 0.266,-5.4 84.483,84.483 0 0 0 -13.195,13.818 l -0.241,0.219 c -37.358,-15.05 -70.233,-16.024 -98.053,-9.276 -6.086,-6.112 -9.059,-1.644 -22.907,-32.069 -0.941,-1.832 0.722,1.809 0,0 -2.278,-5.9 1.389,7.872 0,0 -23.284,18.372 -53.92,39.193 -68.626,53.89 -0.182,0.586 17.156,-4.9 0,0 -6.008,1.716 -5.6,5.281 -6.513,37.5 -0.22,2.443 -0.025,5.179 -0.223,7.378 -11.748,14.968 -19.749,27.643 -22.775,34.211 -15.193,26.18 -31.926,66.992 -48.146,131.551 A 334.364,334.364 0 0 1 110.2,400.365 C 96.712,434.632 83.673,488.443 81.066,571.31 a 483.614,483.614 0 0 1 12.533,-50.66 473.038,473.038 0 0 0 34.74,201.061 c 9.329,22.821 24.76,57.455 51.029,95.4 82.533,86.839 198.945,140.9 327.852,140.9 134.572,10e-4 255.415,-58.878 338.455,-152.375 z" />
      <path
         inkscape:connector-curvature="0"
         id="path203"
         style="fill:url(#radial-gradient-3)"
         d="m 746.1,868.708 c 162.87,-18.86 234.969,-186.7 142.381,-190 -83.633,-2.673 -219.527,198.9 -142.381,190 z" />
      <path
         inkscape:connector-curvature="0"
         id="path205"
         style="fill:url(#radial-gradient-4)"
         d="m 900.207,644.424 c 112.056,-65.214 82.839,-206.08 82.839,-206.08 0,0 -43.246,50.238 -72.625,130.32 -29.021,79.299 -77.584,115.148 -10.214,75.76 z" />
      <path
         inkscape:connector-curvature="0"
         id="path207"
         style="fill:url(#radial-gradient-5)"
         d="m 544.474,952.062 c 156.227,49.851 290.5,-73.22 207.733,-114.32 -75.251,-37.066 -281.883,90.748 -207.733,114.32 z" />
      <path
         inkscape:connector-curvature="0"
         id="path209"
         style="fill:url(#radial-gradient-6)"
         d="m 911.849,704.234 c 3.8,-5.363 8.94,-22.535 13.48,-30.211 27.582,-44.523 27.777,-80.023 27.777,-80.836 16.659,-83.219 15.148,-117.2 4.9,-180.043 -8.251,-50.6 -44.322,-123.092 -75.57,-158 -32.2,-35.965 -9.514,-24.247 -40.692,-50.518 C 814.417,174.333 787.921,144.335 773.491,132.271 669.215,45.094 671.571,26.577 673.579,23.42 c -0.339,0.371 -0.837,0.922 -1.472,1.643 C 670.872,20.14 670,16 670,16 c 0,0 -57,57 -69,152 -7.834,62.021 15.383,126.676 49,168 a 381.367,381.367 0 0 0 59,58 v -0.026 c 25.4,36.477 39.38,81.489 39.38,129.909 0,121.244 -98.341,219.531 -219.652,219.531 a 220.455,220.455 0 0 1 -49.134,-5.519 c -57.236,-10.908 -90.288,-39.781 -106.772,-59.382 -9.447,-11.234 -13.464,-19.423 -13.464,-19.423 51.283,18.371 107.986,14.528 142.468,-4.518 34.749,-19.265 55.774,-33.546 72.837,-27.915 16.82,5.606 30.211,-10.667 18.2,-27.536 -11.771,-16.845 -42.4,-40.97 -87.878,-34.286 -34.789,5.067 -66.657,29.76 -112.24,5.845 a 96.313,96.313 0 0 1 -8.554,-5.02 c -3.005,-1.771 9.768,2.695 6.787,0.682 -8.87,-4.318 -24.573,-13.728 -28.643,-17.074 -0.679,-0.557 6.883,2.161 6.2,1.6 -42.621,-31.449 -37.3,-52.693 -35.959,-66.018 1.073,-10.66 8.814,-24.32 21.859,-29.86 6.3,3.081 10.226,5.433 10.226,5.433 0,0 -2.688,-4.92 -4.141,-7.513 0.509,-0.194 0.994,-0.145 1.5,-0.339 5.162,2.232 16.576,8.029 22.586,11.57 7.827,4.947 10.322,9.358 10.322,9.358 0,0 2.061,-1.016 0.536,-5.33 -0.557,-1.769 -2.929,-7.391 -10.682,-13.065 l 0.485,0.049 a 90.851,90.851 0 0 1 13.134,8.173 c 2.186,-7.121 6.118,-14.557 5.253,-27.859 -0.528,-9.352 -0.284,-11.775 -2.124,-15.386 -1.647,-3.1 0.924,-4.312 3.782,-1.088 a 30.038,30.038 0 0 0 -2.444,-7.343 l 0.025,-0.242 c 3.57,-11.143 75.535,-40.125 80.773,-43.513 a 70.31,70.31 0 0 0 21.175,-20.63 c 4,-5.715 7.014,-13.733 7.748,-25.895 0.246,-5.48 -1.441,-9.817 -20.5,-13.965 -11.439,-2.49 -29.136,-4.913 -56.433,-7.474 -19.9,-1.756 -31.577,-14.676 -38.212,-26.6 -1.211,-2.569 -2.445,-4.9 -3.68,-7.222 a 53.108,53.108 0 0 1 -2.831,-8.36 158.47,158.47 0 0 1 61.279,-76.063 c 1.6,-1.308 -6.4,0.335 -4.8,-0.972 1.868,-1.525 14.063,-5.927 16.367,-6.919 2.813,-1.186 -12.044,-6.84 -25.159,-5.466 -13.357,1.349 -16.194,2.776 -23.323,5.486 2.959,-2.639 12.366,-6.1 10.161,-6.075 -14.4,1.978 -32.3,9.479 -47.6,17.973 a 9.676,9.676 0 0 1 0.924,-4.312 c -7.129,2.709 -24.637,13.674 -29.734,22.95 a 39.488,39.488 0 0 0 0.294,-5.354 88.678,88.678 0 0 0 -14.6,13.7 l -0.267,0.218 c -41.347,-14.925 -77.732,-15.891 -108.522,-9.2 -6.736,-6.061 -17.566,-15.226 -32.892,-45.4 -1.041,-1.817 -1.6,3.755 -2.4,1.961 -5.955,-13.813 -9.553,-36.444 -8.962,-52.046 0,0 -12.318,5.614 -22.513,29.06 -1.893,4.215 -3.107,6.54 -4.32,8.865 -0.558,0.678 1.265,-7.7 0.974,-7.244 -1.772,3 -6.356,7.192 -8.371,12.618 -1.384,4.021 -3.325,6.273 -4.564,11.288 l -0.291,0.46 c -0.1,-1.478 0.367,-6.081 0.027,-5.137 a 236.1,236.1 0 0 0 -12.308,29.841 c -5.489,18.046 -11.879,42.61 -12.892,74.565 -0.244,2.423 -0.027,5.136 -0.247,7.317 -13,14.844 -21.858,27.413 -25.207,33.928 C 75.18,329.762 56.66,370.236 38.707,434.259 A 319.143,319.143 0 0 1 67.245,384.27 C 52.316,418.253 37.885,471.618 35,553.8 a 438.522,438.522 0 0 1 13.872,-50.24 c -2.578,54.8 3.805,122.74 38.449,199.393 20.57,45.087 67.921,136.649 183.62,208.1 l -0.01,0.007 c 0,0 39.36,29.3 107.017,51.259 5,1.814 10.065,3.6 15.234,5.333 -1.622,-0.655 -3.191,-1.344 -4.715,-2.052 a 484.883,484.883 0 0 0 138.8,20.4 c 175.18,0.149 226.846,-70.2 226.846,-70.2 0,0 -0.182,0.137 -0.513,0.377 q 3.708,-3.491 7.143,-7.257 c -27.639,26.1 -90.715,27.832 -114.3,25.949 40.223,-11.813 66.691,-21.806 118.175,-41.519 q 9.037,-3.35 18.482,-7.64 c 0.681,-0.3 1.368,-0.625 2.052,-0.936 1.249,-0.582 2.486,-1.132 3.747,-1.744 a 349.205,349.205 0 0 0 70.262,-43.987 c 51.7,-41.3 62.949,-81.557 68.829,-108.1 -0.82,2.544 -3.375,8.475 -5.17,12.316 -13.315,28.482 -42.841,45.959 -74.908,60.948 A 688.993,688.993 0 0 0 890.3,741.773 c 10.467,-10.383 13.733,-26.625 21.549,-37.539 z" />
      <path
         inkscape:connector-curvature="0"
         id="path211"
         style="fill:url(#radial-gradient-7)"
         d="m 848.921,802.982 c 21.08,-23.241 40.01,-49.824 54.349,-79.968 36.9,-77.582 93.952,-206.58 49.018,-341.306 C 916.775,275.225 868.016,217 806.107,160.122 705.563,67.756 677.482,26.521 677.482,2 677.482,2 561.393,131.409 611.74,266.381 662.087,401.353 765.2,396.405 833.419,537.255 913.694,703 768.47,883.869 648.375,934.493 c 7.353,-1.633 266.97,-60.383 280.614,-208.882 -0.309,2.731 -6.159,43.803 -80.068,77.371 z" />
      <path
         inkscape:connector-curvature="0"
         id="path213"
         style="fill:url(#linear-gradient-2)"
         d="m 512.592,321.373 c 0.393,-8.77 -4.156,-14.66 -76.682,-21.463 -29.839,-2.755 -41.265,-30.334 -44.748,-41.941 -10.61,27.565 -14.991,56.49 -12.636,91.477 1.61,22.92 17.009,47.521 24.37,61.965 0,0 1.636,-2.126 2.391,-2.912 13.861,-14.431 71.936,-36.419 77.392,-39.541 6.014,-3.799 28.903,-20.523 29.913,-47.585 z" />
      <path
         inkscape:connector-curvature="0"
         id="path215"
         style="fill:url(#linear-gradient-3)"
         d="m 193.314,158.471 c -1.041,-1.818 -1.6,3.754 -2.4,1.961 -5.955,-13.813 -9.578,-36.2 -8.72,-52.022 0,0 -12.318,5.614 -22.513,29.06 -1.893,4.215 -3.107,6.54 -4.32,8.865 -0.558,0.678 1.265,-7.7 0.974,-7.244 -1.771,3 -6.355,7.192 -8.346,12.375 -1.651,4.239 -3.349,6.515 -4.613,11.772 -0.389,1.429 0.392,-6.323 0.052,-5.379 -23.711,45.825 -28.237,115.114 -25.738,112.184 50.478,-53.9 108.325,-66.683 108.325,-66.683 -6.155,-4.534 -19.528,-17.625 -32.7,-44.889 z" />
      <path
         inkscape:connector-curvature="0"
         id="path217"
         style="fill:url(#linear-gradient-4)"
         d="m 384.844,722.1 c -69.724,-29.769 -148.992,-71.755 -146,-167.138 4.075,-125.619 117.145,-100.791 117.145,-100.791 -4.267,1.039 -15.675,9.162 -19.718,17.82 -4.273,10.827 -12.069,35.276 11.551,60.9 37.089,40.192 -76.2,95.356 98.663,199.567 4.41,2.4 -40.991,-1.43 -61.639,-10.358 z" />
      <path
         inkscape:connector-curvature="0"
         id="path219"
         style="fill:url(#linear-gradient-5)"
         d="m 360.074,659.5 c 49.442,17.207 107.04,14.189 141.523,-4.858 23.085,-12.851 52.7,-33.434 70.922,-28.353 -15.777,-6.236 -27.726,-9.15 -42.1,-9.862 -2.448,0 -5.382,-0.052 -8.048,-0.32 a 136.228,136.228 0 0 0 -15.757,0.863 c -8.9,0.818 -18.766,6.433 -27.735,5.532 -0.485,-0.049 8.7,-3.774 7.953,-3.605 -4.752,0.991 -9.915,1.205 -15.37,1.881 -3.467,0.386 -6.449,0.82 -9.891,0.963 -102.982,8.733 -190.017,-55.813 -190.017,-55.813 -7.408,24.95 33.166,74.3 88.521,93.572 z" />
      <path
         inkscape:connector-curvature="0"
         id="path221"
         style="fill:url(#linear-gradient-6)"
         d="M 848.738,803.646 C 952.9,701.376 1005.6,577.061 983.321,437.627 c 0,0 8.9,71.5 -24.848,144.628 16.213,-71.393 18.1,-160.114 -24.975,-251.988 C 876.005,207.636 781.45,143.109 745.351,116.189 690.656,75.4 667.983,33.87 667.574,25.3 c -16.339,33.477 -65.766,148.2 -5.31,247 56.64,92.564 145.865,120.039 208.328,204.947 115.075,156.42 -21.854,326.399 -21.854,326.399 z" />
      <path
         inkscape:connector-curvature="0"
         id="path223"
         style="fill:url(#linear-gradient-7)"
         d="M 833.814,537.551 C 797.412,462.35 751.978,429.55 709,394 c 5,7 6.232,9.473 9,14 37.827,40.316 93.607,138.656 53.11,262.107 C 694.881,902.482 389.967,793.057 358,762.319 370.932,896.808 596.036,961.164 742.6,873.949 826,795 893.468,660.788 833.814,537.551 Z" />
    </g>
    <g
       transform="matrix(0.92053992,0,0,0.92053992,317.30819,578.13105)"
       inkscape:path-effect="#path-effect1857"
       id="text1811"
       style="font-style:normal;font-weight:normal;font-size:154.06462097px;line-height:125%;font-family:sans-serif;letter-spacing:0px;word-spacing:0px;opacity:1;vector-effect:none;fill:#f8f8f8;fill-opacity:1;stroke:none;stroke-width:2.48101926;stroke-linecap:butt;stroke-linejoin:miter;stroke-miterlimit:4;stroke-dasharray:none;stroke-dashoffset:0;stroke-opacity:1"
       aria-label="Optimized for">
      <path
         inkscape:connector-curvature="0"
         inkscape:original-d="m 149.99921,-419.50687 q -13.23992,0 -20.53693,9.77949 -7.29701,9.7795 -7.29701,27.53304 0,17.67831 7.29701,27.4578 7.29701,9.77949 20.53693,9.77949 13.31516,0 20.61217,-9.77949 7.297,-9.77949 7.297,-27.4578 0,-17.75354 -7.297,-27.53304 -7.29701,-9.77949 -20.61217,-9.77949 z m 0,-20.9883 q 27.08168,0 42.42796,15.49674 15.34628,15.49673 15.34628,42.80409 0,27.23212 -15.34628,42.72886 -15.34628,15.49673 -42.42796,15.49673 -27.00644,0 -42.42795,-15.49673 -15.346278,-15.49674 -15.346278,-42.72886 0,-27.30736 15.346278,-42.80409 15.42151,-15.49674 42.42795,-15.49674 z"
         id="path1832"
         style="font-style:normal;font-variant:normal;font-weight:bold;font-stretch:normal;font-family:sans-serif;-inkscape-font-specification:'sans-serif Bold';vector-effect:none;fill:#f8f8f8;fill-opacity:1;stroke:none;stroke-width:2.48101926;stroke-linecap:butt;stroke-linejoin:miter;stroke-miterlimit:4;stroke-dasharray:none;stroke-dashoffset:0;stroke-opacity:1"
         d="m 148.27309,-422.70423 c -8.50272,1.68921 -14.89767,7.47251 -19.446,15.33178 -4.5374,7.84038 -6.83887,16.93334 -6.79396,28.14065 0.0449,11.20257 2.45519,21.45009 7.29689,29.76628 4.90286,8.42123 11.50429,13.40899 20.26142,13.53938 8.75446,0.13034 15.49134,-4.59899 20.34729,-12.78462 4.81669,-8.11947 7.26609,-18.65305 7.04488,-31.63897 -0.22288,-13.0842 -3.06234,-24.44462 -8.17129,-32.485 -5.22213,-8.21849 -11.89864,-11.58609 -20.53923,-9.8695 z m -1.8558,-34.38773 c 17.36393,-6.45413 30.70073,-0.79871 42.1504,15.70864 1.85484,2.67418 3.57591,5.52752 5.15689,8.51645 0.0856,0.16182 0.17073,0.32405 0.25548,0.48666 7.62066,14.61821 11.89322,32.09749 12.26576,49.62629 0.3708,17.44702 -3.19545,31.91504 -10.12784,45.31382 -0.0773,0.14943 -0.15503,0.2987 -0.23318,0.4478 -1.44293,2.75256 -3.03343,5.45502 -4.76231,8.08508 -10.3077,15.68064 -24.09648,26.85076 -41.70643,27.23761 -11.20273,0.2461 -20.56978,-3.89782 -28.87423,-11.7914 0,0 -0.0221,-0.0211 -0.0221,-0.0211 -4.75423,-4.52389 -9.01493,-10.1527 -12.81227,-16.41317 -3.14646,-5.21119 -5.84774,-10.65869 -8.059779,-16.04982 0,0 -2e-6,-1e-5 -2e-6,-1e-5 0,0 0,0 0,0 0,0 -0.01697,-0.0414 -0.01697,-0.0414 0,0 -10e-7,0 -10e-7,0 0,0 0,0 0,0 -2.426663,-5.92065 -4.288796,-11.83165 -5.53263,-17.47506 0,0 0,0 0,0 0,0 -0.0057,-0.0258 -0.0057,-0.0258 0,0 0,0 0,0 -0.609545,-2.76936 -1.074728,-5.49238 -1.393242,-8.17208 0,0 0,0 0,0 0,0 0,-10e-6 0,-10e-6 0,0 -0.0016,-0.0131 -0.0016,-0.0131 0,0 0,0 0,0 0,0 -10e-7,0 -10e-7,0 -0.142787,-1.20303 -0.256138,-2.3982 -0.340063,-3.58791 0,0 0,-10e-6 0,-10e-6 0,0 -3.89e-4,-0.006 -3.89e-4,-0.006 0,0 -10e-7,0 -10e-7,0 -0.03153,-0.44751 -0.0589,-0.89425 -0.08212,-1.34041 0,0 -9.4e-5,-0.002 -9.4e-5,-0.002 -0.07434,-1.43171 -0.105753,-2.85604 -0.09481,-4.2823 0.01097,-1.42997 0.06386,-2.8058 0.157396,-4.14105 0,0 1.19e-4,-0.002 1.19e-4,-0.002 0.02932,-0.41629 0.06264,-0.82862 0.09993,-1.23736 0,0 0,0 0,0 0,0 4.61e-4,-0.005 4.61e-4,-0.005 0,0 0,0 0,0 0.09922,-1.08649 0.226499,-2.14782 0.381285,-3.18998 0,0 1e-6,0 1e-6,0 0,0 0,0 0,0 0,0 0.0017,-0.0113 0.0017,-0.0113 0,0 0,0 0,0 0,0 0,0 0,0 0.34515,-2.32057 0.827619,-4.55184 1.440118,-6.74316 0,0 0,0 0,0 0,-10e-6 0.0057,-0.0204 0.0057,-0.0204 0,0 0,0 0,0 1.247142,-4.4554 3.062514,-8.84311 5.359647,-13.31222 0,0 0,0 0,0 0,0 10e-7,0 10e-7,0 1e-6,0 0.01609,-0.0313 0.0161,-0.0313 0,0 0,0 0,0 0,0 10e-7,0 10e-7,0 2.085966,-4.05459 4.637636,-8.30376 7.548696,-12.62714 3.49902,-5.17362 7.49429,-10.43558 11.88222,-15.25827 0,1e-5 0.0206,-0.0226 0.0206,-0.0226 7.63648,-8.38837 16.58099,-15.60708 27.32327,-19.59996 z" />
      <path
         inkscape:connector-curvature="0"
         inkscape:original-d="m 255.31683,-338.33708 v 44.2334 h -26.93122 v -116.30074 h 26.93122 v 12.33721 q 5.56678,-7.37224 12.3372,-10.83267 6.77042,-3.53566 15.57196,-3.53566 15.57196,0 25.57714,12.41243 10.00517,12.3372 10.00517,31.82096 0,19.48376 -10.00517,31.89619 -10.00518,12.33721 -25.57714,12.33721 -8.80154,0 -15.57196,-3.46044 -6.77042,-3.53566 -12.3372,-10.90789 z m 17.90399,-54.53948 q -8.65109,0 -13.31516,6.39428 -4.58883,6.31906 -4.58883,18.28013 0,11.96107 4.58883,18.35536 4.66407,6.31905 13.31516,6.31905 8.65109,0 13.1647,-6.31905 4.58884,-6.31906 4.58884,-18.35536 0,-12.0363 -4.58884,-18.35535 -4.51361,-6.31906 -13.1647,-6.31906 z"
         id="path1834"
         style="font-style:normal;font-variant:normal;font-weight:bold;font-stretch:normal;font-family:sans-serif;-inkscape-font-specification:'sans-serif Bold';vector-effect:none;fill:#f8f8f8;fill-opacity:1;stroke:none;stroke-width:2.48101926;stroke-linecap:butt;stroke-linejoin:miter;stroke-miterlimit:4;stroke-dasharray:none;stroke-dashoffset:0;stroke-opacity:1"
         d="m 252.55586,-332.72198 c -0.52615,19.74186 -1.54818,46.86811 -2.88292,83.26202 -8.66077,2.10751 -17.30832,4.15322 -25.92031,6.10894 2.92888,-96.79175 4.24534,-123.23349 1.01414,-181.60722 8.70351,-1.97401 17.42746,-4.04169 26.15215,-6.17324 0.41696,7.31681 0.76226,14.03905 1.0445,20.29852 3.2836,-8.18384 6.94885,-15.31333 11.11498,-20.53543 4.17796,-5.33387 9.05283,-8.97816 14.79714,-10.50425 10.25856,-2.7254 18.85178,3.57796 26.25546,16.85926 1.20246,2.14377 2.31335,4.37402 3.32966,6.67398 0.42664,0.96558 0.83671,1.9437 1.23,2.93315 4.30366,10.82646 6.59828,22.93055 6.68842,35.71855 0.0901,12.77615 -2.03605,23.56982 -6.12375,33.5297 -0.37407,0.91149 -0.76478,1.81572 -1.17184,2.71262 -0.96947,2.13603 -2.03325,4.2339 -3.18739,6.29011 -6.97057,12.35378 -15.58958,20.50108 -25.75389,22.13882 -5.76607,0.92907 -10.71321,-0.15715 -15.02387,-3.14287 -4.29062,-3.05226 -8.11029,-8.08011 -11.56248,-14.56266 z m 17.23348,-73.58805 c -5.65829,1.05199 -9.82884,5.04 -12.69879,11.36997 -2.81441,6.2347 -4.10684,14.31219 -4.05087,24.05483 0.0559,9.73477 1.44337,17.13964 4.35298,22.26413 2.96674,5.06602 7.20479,7.37893 12.8741,6.65418 5.6489,-0.72214 10.03303,-4.12148 13.08968,-9.89274 3.09612,-5.75959 4.72314,-13.58374 4.65688,-23.68364 -0.0665,-10.13312 -1.8043,-18.34009 -4.99667,-23.84807 -3.17734,-5.57644 -7.5625,-7.97186 -13.22731,-6.91866 z" />
      <path
         inkscape:connector-curvature="0"
         inkscape:original-d="m 368.23236,-434.32656 v 23.92214 h 27.75871 v 19.25808 h -27.75871 v 35.73276 q 0,5.8677 2.33203,7.97405 2.33203,2.03112 9.2529,2.03112 h 13.84175 v 19.25808 h -23.09465 q -15.9481,0 -22.64329,-6.61996 -6.61996,-6.69519 -6.61996,-22.64329 v -35.73276 h -13.39038 v -19.25808 h 13.39038 v -23.92214 z"
         id="path1836"
         style="font-style:normal;font-variant:normal;font-weight:bold;font-stretch:normal;font-family:sans-serif;-inkscape-font-specification:'sans-serif Bold';vector-effect:none;fill:#f8f8f8;fill-opacity:1;stroke:none;stroke-width:2.48101926;stroke-linecap:butt;stroke-linejoin:miter;stroke-miterlimit:4;stroke-dasharray:none;stroke-dashoffset:0;stroke-opacity:1"
         d="m 357.9459,-523.70785 c 1.57279,25.10903 2.79455,46.09323 3.71834,63.83643 9.17845,-2.38798 18.35871,-4.74752 27.59112,-7.0716 0.73088,14.90321 1.28216,27.75528 1.67907,39.10512 -9.22937,1.85873 -18.37734,3.72631 -27.56333,5.6075 0.74427,20.30992 0.95808,36.12227 0.78319,51.15958 -0.0576,4.94935 0.63346,8.16482 2.13676,9.68891 1.50321,1.45922 4.53628,1.8166 9.11932,1.06798 12.48693,-2.03968 1.27342,-0.20806 13.76035,-2.24775 -0.20274,8.05324 -0.5105,16.21152 -0.90898,25.05551 -3.15537,0.56897 -19.80828,3.58881 -22.96365,4.15779 -10.59055,1.92039 -17.821,0.0745 -22.03226,-5.24887 -4.14055,-5.37762 -5.9096,-14.94578 -5.75059,-28.22571 0.17936,-14.97965 -0.0271,-30.40827 -0.76577,-49.95821 -4.40126,0.89729 -8.80309,1.79128 -13.19582,2.67753 -0.39447,-10.34069 -0.94756,-21.92935 -1.68836,-35.2961 74.069,-19.58264 -60.88736,16.09815 13.18164,-3.48449 -0.92432,-16.97218 -2.15131,-37.02219 -3.73767,-61.01904 8.8489,-3.31288 17.71763,-6.58412 26.63664,-9.80458 z" />
      <path
         sodipodi:nodetypes="cccccccccc"
         inkscape:connector-curvature="0"
         inkscape:original-d="m 412.54097,-410.40442 h 26.93122 v 84.25409 h -26.93122 z m -0.58919,-22.19349 H 438.883 l 0.58919,11.36082 h -26.93122 z"
         id="path1838"
         style="font-style:normal;font-variant:normal;font-weight:bold;font-stretch:normal;font-family:sans-serif;-inkscape-font-specification:'sans-serif Bold';vector-effect:none;fill:#f8f8f8;fill-opacity:1;stroke:none;stroke-width:2.48101926;stroke-linecap:butt;stroke-linejoin:miter;stroke-miterlimit:4;stroke-dasharray:none;stroke-dashoffset:0;stroke-opacity:1"
         d="m 405.78309,-471.04782 c 8.98536,-2.19927 17.98343,-4.34567 27.02049,-6.42971 2.96045,68.20869 2.86663,95.50239 1.30736,131.8917 -9.03124,1.53992 -18.01487,3.11037 -27.00044,4.70501 1.6588,-37.25163 1.77334,-64.21219 -1.32741,-130.167 z m -3.8237,-62.07488 c 9.02763,-2.92186 18.08106,-5.75815 27.17693,-8.49787 -0.14982,-2.2439 2.5008,37.58568 2.35098,35.34178 -9.06202,2.37428 -18.08412,4.82635 -27.08726,7.34597 -0.0646,-0.91153 -2.37607,-33.27835 -2.44065,-34.18988 z" />
      <path
         inkscape:connector-curvature="0"
         inkscape:original-d="m 543.58618,-396.41222 q 5.11542,-7.8236 12.11152,-11.88585 7.07133,-4.13747 15.49674,-4.13747 14.51878,0 22.11669,8.95199 7.59792,8.952 7.59792,26.0285 v 51.30472 h -27.08167 v -43.93249 q 0.0752,-0.97795 0.0752,-2.03112 0.0752,-1.05318 0.0752,-3.00908 0,-8.952 -2.63294,-12.93902 -2.63294,-4.06225 -8.50064,-4.06225 -7.67314,0 -11.88584,6.31906 -4.13748,6.31905 -4.28793,18.28012 v 41.37478 h -27.08167 v -43.93249 q 0,-13.9922 -2.40726,-17.97922 -2.40726,-4.06225 -8.57587,-4.06225 -7.74836,0 -11.96107,6.39428 -4.2127,6.31906 -4.2127,18.12968 v 41.45 h -27.08167 v -84.25409 h 27.08167 v 12.33721 q 4.96497,-7.14656 11.35925,-10.75745 6.46951,-3.61088 14.21788,-3.61088 8.72632,0 15.42151,4.2127 6.69519,4.2127 10.15563,11.81062 z"
         id="path1840"
         style="font-style:normal;font-variant:normal;font-weight:bold;font-stretch:normal;font-family:sans-serif;-inkscape-font-specification:'sans-serif Bold';vector-effect:none;fill:#f8f8f8;fill-opacity:1;stroke:none;stroke-width:2.48101926;stroke-linecap:butt;stroke-linejoin:miter;stroke-miterlimit:4;stroke-dasharray:none;stroke-dashoffset:0;stroke-opacity:1"
         d="m 539.4851,-464.14957 c 3.23876,-11.78782 7.10548,-22.21587 11.73643,-29.95157 4.70198,-7.91187 9.857,-12.53592 15.68568,-13.26504 10.07138,-1.25984 17.69344,6.59238 23.24688,21.06278 5.46076,14.22892 8.33635,33.49003 8.50198,52.45823 0.25121,28.76882 0.14347,46.7268 -0.0965,67.02948 -9.2972,0.70189 -18.57376,1.50133 -27.84531,2.39292 0.33593,-17.51326 0.50517,-33.38749 0.35525,-55.47052 0.0445,-0.98667 0.0625,-2.02102 0.0539,-3.10661 0.0425,-1.08904 0.0553,-2.65804 0.0353,-4.75365 -0.0916,-9.61758 -1.10774,-17.61903 -2.98175,-22.57873 -1.89092,-5.09824 -4.81579,-7.61495 -8.82916,-7.16759 -5.26454,0.58682 -9.15928,5.47097 -11.91935,13.70538 -2.68217,8.14871 -3.97243,18.87252 -4.00817,30.42607 0.1145,19.99707 -0.11113,35.16924 -0.54294,51.89399 -9.24072,1.06639 -18.45378,2.21433 -27.65828,3.43656 0.57038,-18.05985 0.84903,-34.18493 0.66761,-55.8683 -0.11594,-13.85718 -1.1837,-24.93609 -2.91305,-29.69092 -1.75353,-4.91091 -4.70393,-7.22536 -8.88954,-6.58928 -5.27579,0.80174 -9.1369,5.7575 -11.83492,13.93975 -2.67596,8.01897 -3.89079,18.37803 -3.8182,29.59428 0.12741,19.68584 -0.19852,35.11884 -0.83139,52.49849 -9.16514,1.35732 -18.29496,2.77402 -27.41632,4.24175 1.43359,-35.64787 1.50913,-63.19464 -1.27142,-133.37572 9.13521,-1.95522 18.28605,-3.82784 27.4704,-5.60855 0.37544,10.6107 0.6936,20.25151 0.95932,29.07567 3.05647,-10.83529 6.58894,-20.26688 10.74115,-27.19896 4.21787,-6.96518 8.89166,-11.15129 14.20333,-12.08745 5.98632,-1.05507 11.30042,1.94933 16.11002,8.52046 4.77602,6.52524 8.48172,15.75346 11.08895,26.43708 0,0 5e-5,0 5e-5,0 z" />
      <path
         sodipodi:nodetypes="cccccccccc"
         inkscape:connector-curvature="0"
         inkscape:original-d="m 626.18526,-410.40442 h 26.93122 v 84.25409 h -26.93122 z m 0,-21.01511 h 26.93122 v 10.18244 h -26.93122 z"
         id="path1842"
         style="font-style:normal;font-variant:normal;font-weight:bold;font-stretch:normal;font-family:sans-serif;-inkscape-font-specification:'sans-serif Bold';vector-effect:none;fill:#f8f8f8;fill-opacity:1;stroke:none;stroke-width:2.48101926;stroke-linecap:butt;stroke-linejoin:miter;stroke-miterlimit:4;stroke-dasharray:none;stroke-dashoffset:0;stroke-opacity:1"
         d="m 623.84351,-507.11961 c -2e-4,1e-5 1.59403,-0.10243 1.59383,-0.10242 8.76946,-0.55604 17.54096,-0.99057 26.32294,-1.30179 0.64533,95.6963 0.4556,88.66075 0.65441,138.78327 -8.74696,0.28512 -17.48223,0.66404 -26.21732,1.1348 -3.1e-4,2e-5 -1.58719,0.0866 -1.5875,0.0866 0.15332,-34.95124 0.17593,-58.69303 -0.76636,-138.60045 z m -0.84972,-68.26393 c 0.53833,-0.0426 1.0767,-0.0847 1.61511,-0.12618 8.88597,-0.6848 17.77652,-1.21651 26.67721,-1.59331 0.1059,15.23341 0.1438,20.63929 0.2497,35.8727 -8.83636,0.34265 -17.66246,0.82358 -26.48524,1.441 -1.8e-4,2e-5 -1.6034,0.11374 -1.60357,0.11375 -0.0127,-1.02112 -0.44046,-34.68684 -0.45321,-35.70796 z" />
      <path
         sodipodi:nodetypes="ccccccccccc"
         inkscape:connector-curvature="0"
         inkscape:original-d="m 675.0075,-410.40442 h 73.49665 v 13.59897 l -44.38385,51.39704 h 44.38385 v 19.25808 h -75.37732 v -18.80672 l 44.38385,-51.39704 H 675.0075 Z"
         id="path1844"
         style="font-style:normal;font-variant:normal;font-weight:bold;font-stretch:normal;font-family:sans-serif;-inkscape-font-specification:'sans-serif Bold';vector-effect:none;fill:#f8f8f8;fill-opacity:1;stroke:none;stroke-width:2.48101926;stroke-linecap:butt;stroke-linejoin:miter;stroke-miterlimit:4;stroke-dasharray:none;stroke-dashoffset:0;stroke-opacity:1"
         d="m 674.47629,-509.05236 c 25.47628,-0.28208 50.82278,0.48402 76.24201,2.27467 -0.13848,12.47284 -0.25025,23.73398 -0.33683,33.86027 -15.63818,37.59979 -30.49731,60.25983 -45.58492,80.46945 15.22841,0.18374 30.40949,0.63963 45.61238,1.3607 0.1338,7.57207 0.32232,14.77342 0.57619,22.15469 -25.98964,-1.26949 -51.85406,-1.71037 -77.89037,-1.30593 -0.0745,-7.1945 -0.12774,-14.27791 -0.17046,-21.66081 15.18228,-20.57533 30.03229,-43.45933 45.5028,-81.49265 -14.62334,-0.45811 -29.22623,-0.61144 -43.85561,-0.45846 0.009,3.2438 -0.1042,-38.44573 -0.0952,-35.20193 z" />
      <path
         inkscape:connector-curvature="0"
         inkscape:original-d="m 852.91902,-368.50305 v 7.67314 h -62.96488 q 0.97795,9.47858 6.84564,14.21787 5.8677,4.7393 16.39946,4.7393 8.50063,0 17.3774,-2.48249 8.952,-2.55771 18.35536,-7.67314 v 20.76261 q -9.55381,3.61089 -19.10763,5.41634 -9.55381,1.88067 -19.10762,1.88067 -22.86897,0 -35.58231,-11.58494 -12.63811,-11.66016 -12.63811,-32.64846 0,-20.61216 12.41243,-32.42278 12.48766,-11.81061 34.30345,-11.81061 19.8599,0 31.74574,11.96107 11.96107,11.96107 11.96107,31.97142 z m -27.68348,-8.952 q 0,-7.67314 -4.51362,-12.33721 -4.43838,-4.73929 -11.66016,-4.73929 -7.82359,0 -12.71334,4.43838 -4.88975,4.36316 -6.09338,12.63812 z"
         id="path1846"
         style="font-style:normal;font-variant:normal;font-weight:bold;font-stretch:normal;font-family:sans-serif;-inkscape-font-specification:'sans-serif Bold';vector-effect:none;fill:#f8f8f8;fill-opacity:1;stroke:none;stroke-width:2.48101926;stroke-linecap:butt;stroke-linejoin:miter;stroke-miterlimit:4;stroke-dasharray:none;stroke-dashoffset:0;stroke-opacity:1"
         d="m 856.66599,-411.7463 c -0.001,3.67966 0.0136,7.19622 0.045,10.58384 -11.85925,-1.45018 -23.72228,-2.77886 -35.6356,-3.96995 -2.04912,-0.20469 -4.09878,-0.40523 -6.1492,-0.60153 -7.43293,-0.7125 -14.86927,-1.36904 -22.31923,-1.96701 0.72254,8.46488 3.18014,14.354 7.26052,18.44544 3.80333,3.81364 9.01391,6.08782 15.50766,6.93079 0,0 0,0 0,0 0.46149,0.0599 0.92966,0.11249 1.40449,0.15794 1.577,0.15094 3.16121,0.23359 4.75169,0.24769 4.24379,0.038 8.54442,-0.412 12.88287,-1.36332 5.99354,-1.35703 12.17446,-3.70462 18.42283,-7.14053 0.18392,8.51441 0.488,16.47739 0.92175,24.59022 -6.33504,2.02727 -12.72152,3.38878 -19.15533,4.07796 -4.02903,0.46903 -8.07583,0.6626 -12.1473,0.58116 -2.05303,-0.0409 -4.11063,-0.1517 -6.17371,-0.332 -0.37883,-0.0331 -0.75781,-0.0686 -1.13697,-0.10646 -15.59157,-1.55554 -28.17882,-7.08659 -37.11251,-16.47193 -8.93491,-9.49261 -13.52278,-21.86716 -13.55177,-41.95696 -0.0288,-19.96023 4.42208,-41.83637 13.18372,-59.59557 9.01512,-18.1613 20.68755,-28.32345 35.8619,-26.24127 0.90905,0.12473 1.8044,0.29809 2.68651,0.51973 0,0 0,0 0,0 2.13748,0.53684 4.19261,1.35608 6.17147,2.44863 0,0 0,0 0,0 9.51852,5.25582 17.01421,16.72604 22.98122,31.75589 7.7141,19.30911 11.30702,40.44076 11.30003,59.40724 z m -28.06569,-17.0688 c 0.0666,-8.35259 -1.35461,-16.13513 -4.33159,-22.58586 -0.86318,-1.93128 -1.81062,-3.64008 -2.84624,-5.10162 -1.77801,-2.50918 -3.80133,-4.26968 -6.09431,-5.20957 -0.90049,-0.36921 -1.84005,-0.61094 -2.82046,-0.72374 -5.36496,-0.61724 -9.70433,2.10421 -13.14628,7.69777 -3.4117,5.44684 -5.57911,13.2859 -6.45141,22.35342 7.35135,0.63763 14.68961,1.33614 22.02393,2.09299 2.05149,0.21145 4.1022,0.42743 6.15235,0.64789 2.50588,0.26966 5.01042,0.54595 7.51401,0.82872 z" />
      <path
         inkscape:connector-curvature="0"
         inkscape:original-d="m 930.55318,-398.06721 v -45.13612 h 27.08167 v 117.053 h -27.08167 v -12.18675 q -5.56679,7.44746 -12.26198,10.90789 -6.69519,3.46044 -15.49674,3.46044 -15.57196,0 -25.57713,-12.33721 -10.00518,-12.41243 -10.00518,-31.89619 0,-19.48376 10.00518,-31.82096 10.00517,-12.41243 25.57713,-12.41243 8.72632,0 15.42151,3.53566 6.77042,3.46043 12.33721,10.83267 z m -17.75355,54.53947 q 8.65109,0 13.16471,-6.31905 4.58884,-6.31906 4.58884,-18.35536 0,-12.0363 -4.58884,-18.35535 -4.51362,-6.31906 -13.16471,-6.31906 -8.57586,0 -13.1647,6.31906 -4.51361,6.31905 -4.51361,18.35535 0,12.0363 4.51361,18.35536 4.58884,6.31905 13.1647,6.31905 z"
         id="path1848"
         style="font-style:normal;font-variant:normal;font-weight:bold;font-stretch:normal;font-family:sans-serif;-inkscape-font-specification:'sans-serif Bold';vector-effect:none;fill:#f8f8f8;fill-opacity:1;stroke:none;stroke-width:2.48101926;stroke-linecap:butt;stroke-linejoin:miter;stroke-miterlimit:4;stroke-dasharray:none;stroke-dashoffset:0;stroke-opacity:1"
         d="m 935.92168,-449.69993 c 0.99039,-29.76416 2.85478,-71.54082 5.81612,-129.01873 9.16967,3.22712 18.29153,6.57301 27.37925,10.02492 -7.87599,141.24878 -8.53824,179.92308 -5.1959,225.99507 -9.031,-1.60347 -18.06428,-3.17734 -27.14493,-4.71361 -0.36811,-5.14947 -0.67843,-10.10502 -0.93348,-15.00429 -3.40354,5.38625 -7.22416,9.20869 -11.51716,11.34692 -4.31066,2.14704 -9.38618,2.75404 -15.33328,1.80627 -10.4375,-1.66339 -19.59938,-8.17326 -26.80507,-18.7517 -7.2397,-10.68313 -11.04621,-23.23954 -11.04299,-41.42291 0.003,-18.28322 3.81755,-37.86254 11.08583,-54.68922 7.44836,-17.34879 16.23729,-26.76625 26.8984,-24.40673 5.91708,1.30957 10.93762,5.55323 15.24546,12.26168 4.35402,6.58443 8.14104,15.82052 11.54775,26.57233 z m -18.20792,78.28883 c 5.80027,0.87396 10.09752,-0.95917 12.94878,-5.61752 2.91615,-4.67427 4.25531,-11.91496 4.26204,-22.91913 0.007,-11.08257 -1.32068,-21.22785 -4.22535,-29.08585 -2.87469,-7.90503 -7.09688,-12.839 -12.93434,-13.92126 -5.786,-1.07271 -10.26523,2.26905 -13.54496,9.28704 -3.18705,6.9362 -4.88913,16.93555 -4.89387,28.20213 -0.005,11.18679 1.689,18.925 4.86514,24.48319 3.21512,5.54567 7.79338,8.70816 13.52256,9.5714 z" />
      <path
         inkscape:connector-curvature="0"
         inkscape:original-d="m 1092.6671,-443.20333 v 17.67831 h -14.8949 q -5.7173,0 -7.9741,2.10635 -2.2568,2.03113 -2.2568,7.14656 v 5.86769 h 23.0194 v 19.25808 h -23.0194 v 64.99601 h -26.9312 v -64.99601 h -13.3904 v -19.25808 h 13.3904 v -5.86769 q 0,-13.76652 7.6731,-20.31126 7.6732,-6.61996 23.7717,-6.61996 z"
         id="path1850"
         style="font-style:normal;font-variant:normal;font-weight:bold;font-stretch:normal;font-family:sans-serif;-inkscape-font-specification:'sans-serif Bold';vector-effect:none;fill:#f8f8f8;fill-opacity:1;stroke:none;stroke-width:2.48101926;stroke-linecap:butt;stroke-linejoin:miter;stroke-miterlimit:4;stroke-dasharray:none;stroke-dashoffset:0;stroke-opacity:1"
         d="m 1101.9331,-511.96505 c -1.1524,17.09051 -2.1251,32.2139 -2.9317,45.52135 -4.8128,-1.61052 -9.637,-3.23393 -14.4638,-4.86289 -3.7151,-1.25378 -6.3888,-0.45604 -8.0585,2.34133 -1.6522,2.66324 -2.7117,7.92522 -3.1122,15.14252 -0.2289,4.12533 -0.4414,8.08433 -0.638,11.8872 7.5,1.98043 14.9963,3.93939 22.4711,5.85699 -0.6117,11.83147 -1.0659,22.20404 -1.3788,31.54861 -7.5052,-1.3888 -15.0242,-2.8297 -22.5466,-4.30596 -1.0994,32.40447 -0.6532,54.51685 1.317,85.70107 -8.7816,-1.49518 -17.5982,-3.04643 -26.42,-4.6264 -2.0374,-30.19975 -2.4993,-52.42903 -1.3517,-86.38613 -0.2897,-0.0592 -9.5385,-1.95911 -9.8282,-2.01833 -0.049,-0.0101 -3.3139,-0.68373 -3.363,-0.69384 0.349,-10.41696 0.8533,-22.15178 1.5293,-35.63461 0.123,0.0329 3.2365,0.8662 3.3594,0.89911 4.125,1.10461 5.69,1.52409 9.8149,2.6287 0.2042,-4.01481 0.4247,-8.19745 0.6622,-12.55797 1.1184,-20.53781 4.8162,-38.73067 10.6258,-49.4975 5.9173,-11.09767 13.9463,-14.68301 24.4179,-9.95607 6.6588,3.00587 13.276,6.0076 19.8949,9.01282 z" />
      <path
         inkscape:connector-curvature="0"
         inkscape:original-d="m 1144.4231,-393.17747 q -8.952,0 -13.6912,6.46951 -4.6641,6.39429 -4.6641,18.50581 0,12.11153 4.6641,18.58104 4.7392,6.39428 13.6912,6.39428 8.8016,0 13.4657,-6.39428 4.664,-6.46951 4.664,-18.58104 0,-12.11152 -4.664,-18.50581 -4.6641,-6.46951 -13.4657,-6.46951 z m 0,-19.25807 q 21.7406,0 33.9274,11.73539 12.2619,11.73539 12.2619,32.498 0,20.76262 -12.2619,32.49801 -12.1868,11.73539 -33.9274,11.73539 -21.8157,0 -34.153,-11.73539 -12.2619,-11.73539 -12.2619,-32.49801 0,-20.76261 12.2619,-32.498 12.3373,-11.73539 34.153,-11.73539 z"
         id="path1852"
         style="font-style:normal;font-variant:normal;font-weight:bold;font-stretch:normal;font-family:sans-serif;-inkscape-font-specification:'sans-serif Bold';vector-effect:none;fill:#f8f8f8;fill-opacity:1;stroke:none;stroke-width:2.48101926;stroke-linecap:butt;stroke-linejoin:miter;stroke-miterlimit:4;stroke-dasharray:none;stroke-dashoffset:0;stroke-opacity:1"
         d="m 1146.5263,-398.46584 c -5.8459,-0.87422 -10.3561,1.32616 -13.6176,6.50909 -3.177,5.07099 -4.8699,12.63375 -4.8685,22.23691 0,9.59302 1.6955,17.28775 4.8722,23.01421 3.237,5.69115 7.787,9.01027 13.6142,9.52478 5.7521,0.50787 9.9948,-2.05245 12.9342,-7.28826 2.9222,-5.27172 4.3063,-12.70983 4.3031,-21.96689 -0,-9.25325 -1.3913,-16.53965 -4.3136,-22.08999 -2.9204,-5.61033 -7.191,-9.08252 -12.924,-9.93985 z m 1.1873,-28.26888 c 14.042,3.26684 24.6733,12.05071 32.2325,23.23979 7.6233,11.21848 11.3393,23.36376 11.3455,38.5238 0.01,15.15602 -3.7018,29.54855 -11.3411,40.79034 -7.7461,11.47522 -18.0611,17.32777 -32.2918,15.61428 -14.1077,-1.69869 -25.515,-9.97622 -34.0664,-21.97202 -8.4615,-11.93212 -13.0273,-25.8991 -13.0265,-42.55674 7e-4,-16.69791 4.5742,-31.55172 13.0618,-42.09266 8.7701,-10.81894 19.7999,-14.87039 34.086,-11.54679 z" />
      <path
         inkscape:connector-curvature="0"
         inkscape:original-d="m 1272.8354,-387.46023 q -3.5357,-1.65499 -7.0714,-2.40725 -3.4604,-0.8275 -6.9961,-0.8275 -10.3813,0 -16.0233,6.69519 -5.5668,6.61996 -5.5668,19.0324 v 38.81706 h -26.9312 v -84.25409 h 26.9312 v 13.84174 q 5.1907,-8.27495 11.8859,-12.03629 6.7704,-3.83657 16.1737,-3.83657 1.3541,0 2.9339,0.15045 1.5798,0.0752 4.5888,0.45136 z"
         id="path1854"
         style="font-style:normal;font-variant:normal;font-weight:bold;font-stretch:normal;font-family:sans-serif;-inkscape-font-specification:'sans-serif Bold';vector-effect:none;fill:#f8f8f8;fill-opacity:1;stroke:none;stroke-width:2.48101926;stroke-linecap:butt;stroke-linejoin:miter;stroke-miterlimit:4;stroke-dasharray:none;stroke-dashoffset:0;stroke-opacity:1"
         d="m 1272.7118,-385.5427 c -2.3541,-0.80293 -4.711,-1.38662 -7.0542,-1.73132 -2.2956,-0.3916 -4.6143,-0.56712 -6.9536,-0.50673 -6.8818,0.17765 -12.1521,2.23619 -15.9193,6.64391 -3.7002,4.33826 -5.5735,10.60826 -5.5595,19.53041 0.021,13.47766 0.1488,31.31912 0.4485,54.52119 -8.7655,0.1267 -17.5126,0.0436 -26.2458,-0.22224 -1.0821,-46.93054 -1.1003,-71.34216 0,-104.15537 8.7289,1.2797 17.4734,2.39316 26.2382,3.31242 -0.1129,5.16083 -0.1991,10.00237 -0.2644,14.64258 3.4861,-5.44236 7.447,-9.37387 11.8564,-11.65108 4.504,-2.34891 9.7068,-3.1733 15.8966,-2.75808 0.8863,0.0595 1.8445,0.17083 2.8793,0.33028 1.0482,0.11249 2.5225,0.34227 4.5103,0.67521 0.034,5.44975 0.1292,15.91907 0.1632,21.36882 z" />
    </g>
  </g>
</svg>
