<?xml version="1.0" encoding="iso-8859-1"?>
<!-- Generator: Adobe Illustrator 17.1.0, SVG Export Plug-In . SVG Version: 6.00 Build 0)  -->
<!DOCTYPE svg PUBLIC "-//W3C//DTD SVG 1.1//EN" "http://www.w3.org/Graphics/SVG/1.1/DTD/svg11.dtd">
<svg version="1.1" id="Capa_1" xmlns="http://www.w3.org/2000/svg" xmlns:xlink="http://www.w3.org/1999/xlink" x="0px" y="0px"
	 viewBox="0 0 279 279" style="enable-background:new 0 0 279 279;" xml:space="preserve">
<path d="M97.449,184.07c-0.238,2.042-1.305,3.896-2.949,5.13l-52.8,39.6c-1.32,0.99-2.904,1.5-4.501,1.5
	c-1.008,0-2.021-0.203-2.977-0.616c-2.471-1.069-4.18-3.38-4.477-6.056l-13.2-118.8c-0.365-3.29,1.469-6.431,4.515-7.729
	c3.043-1.296,6.581-0.444,8.701,2.099l66,79.2C97.078,179.979,97.688,182.028,97.449,184.07z M257.939,97.1
	c-3.047-1.296-6.581-0.444-8.701,2.099l-66,79.2c-1.316,1.58-1.926,3.63-1.688,5.672s1.305,3.896,2.949,5.13l52.8,39.6
	c1.32,0.99,2.903,1.5,4.501,1.5c1.008,0,2.021-0.203,2.977-0.616c2.471-1.069,4.18-3.38,4.477-6.056l13.2-118.8
	C262.819,101.538,260.985,98.397,257.939,97.1z M138.667,36c-4.143,0-7.5,3.357-7.5,7.5v33c0,4.143,3.357,7.5,7.5,7.5
	s7.5-3.357,7.5-7.5v-33C146.167,39.357,142.81,36,138.667,36z M138.667,101c-4.143,0-7.5,3.357-7.5,7.5v33
	c0,4.143,3.357,7.5,7.5,7.5s7.5-3.357,7.5-7.5v-33C146.167,104.357,142.81,101,138.667,101z M138.667,166
	c-4.143,0-7.5,3.357-7.5,7.5v33c0,4.143,3.357,7.5,7.5,7.5s7.5-3.357,7.5-7.5v-33C146.167,169.357,142.81,166,138.667,166z
	 M138.667,231c-4.143,0-7.5,3.357-7.5,7.5v33c0,4.143,3.357,7.5,7.5,7.5s7.5-3.357,7.5-7.5v-33
	C146.167,234.357,142.81,231,138.667,231z M209.667,4c-4.143,0-7.5,3.357-7.5,7.5v13.234C192.167,13.981,171.716,0,139.333,0
	C87.846,0,67.697,35.353,66.861,36.857c-2.012,3.621-0.666,8.188,2.955,10.198c3.622,2.013,8.208,0.706,10.219-2.913
	C80.197,43.851,96.731,15,139.49,15c28.702,0,45.497,12.844,53.554,21.5H177.5c-4.143,0-7.5,3.357-7.5,7.5s3.357,7.5,7.5,7.5H210
	c4.143,0,7.167-3.357,7.167-7.5V11.5C217.167,7.357,213.81,4,209.667,4z"/>
<g>
</g>
<g>
</g>
<g>
</g>
<g>
</g>
<g>
</g>
<g>
</g>
<g>
</g>
<g>
</g>
<g>
</g>
<g>
</g>
<g>
</g>
<g>
</g>
<g>
</g>
<g>
</g>
<g>
</g>
</svg>
