<?xml version="1.0" encoding="UTF-8" standalone="no"?>
<svg
   xmlns:dc="http://purl.org/dc/elements/1.1/"
   xmlns:cc="http://creativecommons.org/ns#"
   xmlns:rdf="http://www.w3.org/1999/02/22-rdf-syntax-ns#"
   xmlns:svg="http://www.w3.org/2000/svg"
   xmlns="http://www.w3.org/2000/svg"
   xmlns:sodipodi="http://sodipodi.sourceforge.net/DTD/sodipodi-0.dtd"
   xmlns:inkscape="http://www.inkscape.org/namespaces/inkscape"
   id="Layer_1"
   style="enable-background:new 0 0 64 64;"
   version="1.1"
   viewBox="0 0 64 64"
   xml:space="preserve"
   sodipodi:docname="target_black.svg"
   inkscape:version="0.92.3 (2405546, 2018-03-11)"><metadata
     id="metadata14"><rdf:RDF><cc:Work
         rdf:about=""><dc:format>image/svg+xml</dc:format><dc:type
           rdf:resource="http://purl.org/dc/dcmitype/StillImage" /><dc:title></dc:title></cc:Work></rdf:RDF></metadata><defs
     id="defs12" /><sodipodi:namedview
     pagecolor="#ffffff"
     bordercolor="#666666"
     borderopacity="1"
     objecttolerance="10"
     gridtolerance="10"
     guidetolerance="10"
     inkscape:pageopacity="0"
     inkscape:pageshadow="2"
     inkscape:window-width="1200"
     inkscape:window-height="1892"
     id="namedview10"
     showgrid="false"
     inkscape:zoom="14.75"
     inkscape:cx="26.851458"
     inkscape:cy="16.832097"
     inkscape:window-x="0"
     inkscape:window-y="0"
     inkscape:window-maximized="1"
     inkscape:current-layer="Layer_1" /><style
     type="text/css"
     id="style2">
	.st0{fill:#134563;}
</style><path
     class="st0"
     d="M 32,55.7 31.1,54.6 C 30.5,53.8 15.2,35.9 15.2,25.2 15.2,15.9 22.8,8.4 32,8.4 c 9.2,0 16.8,7.6 16.8,16.8 0,10.7 -15.3,28.7 -15.9,29.4 z m 0,-45 c -8,0 -14.4,6.5 -14.4,14.4 0,8.4 11.1,22.7 14.4,26.8 C 35.3,47.8 46.4,33.6 46.4,25.1 46.4,17.2 40,10.7 32,10.7 Z"
     id="Fill-55"
     inkscape:connector-curvature="0"
     style="fill:#3d3939;fill-opacity:1" /><path
     class="st0"
     d="m 32,31.6 c -3.5,0 -6.4,-2.9 -6.4,-6.4 0,-3.5 2.9,-6.4 6.4,-6.4 3.5,0 6.4,2.9 6.4,6.4 0,3.5 -2.9,6.4 -6.4,6.4 z m 0,-10.4 c -2.2,0 -4,1.8 -4,4 0,2.2 1.8,4 4,4 2.2,0 4,-1.8 4,-4 0,-2.2 -1.8,-4 -4,-4 z"
     id="Fill-56"
     inkscape:connector-curvature="0"
     style="fill:#3b3b3b;fill-opacity:1" /><path
     style="color:#000000;clip-rule:nonzero;display:inline;overflow:visible;visibility:visible;opacity:1;isolation:auto;mix-blend-mode:normal;color-interpolation:sRGB;color-interpolation-filters:linearRGB;solid-color:#000000;solid-opacity:1;vector-effect:none;fill:#666a6c;fill-opacity:1;fill-rule:evenodd;stroke:#3b3b3b;stroke-width:1;stroke-linecap:butt;stroke-linejoin:miter;stroke-miterlimit:4;stroke-dasharray:none;stroke-dashoffset:0;stroke-opacity:1;color-rendering:auto;image-rendering:auto;shape-rendering:auto;text-rendering:auto;enable-background:accumulate;font-variant-east_asian:normal"
     d="M 30.585843,50.023243 C 24.245117,41.877759 19.794371,34.283291 18.291542,29.045035 17.787171,27.287002 17.619573,26.030802 17.68393,24.490788 c 0.145135,-3.472989 1.487117,-6.667873 3.859238,-9.187767 1.691855,-1.797249 3.618962,-3.037155 5.895633,-3.793267 1.585893,-0.526695 2.283155,-0.645265 4.118662,-0.70038 1.41504,-0.04249 1.858113,-0.01956 2.828427,0.146353 3.062915,0.523738 5.466514,1.779602 7.725799,4.036681 2.107059,2.105001 3.311295,4.317431 3.969707,7.293165 0.250565,1.132448 0.301189,3.507877 0.100409,4.711528 -0.537018,3.219354 -2.202213,7.134935 -5.100541,11.993534 -2.12707,3.565704 -5.935399,8.958902 -8.873771,12.56667 l -0.218575,0.268369 z m 2.973155,-18.589551 c 1.395176,-0.315721 2.994847,-1.463755 3.832928,-2.750772 1.65752,-2.545405 1.301723,-5.847708 -0.863309,-8.01274 -2.603417,-2.603417 -6.670289,-2.530341 -9.213459,0.165553 -1.125259,1.192834 -1.725694,2.71141 -1.729507,4.374146 -0.004,1.733244 0.637016,3.262823 1.888923,4.507481 1.675049,1.665352 3.738068,2.247301 6.084424,1.716332 z"
     id="path826"
     inkscape:connector-curvature="0" /><path
     style="color:#000000;clip-rule:nonzero;display:inline;overflow:visible;visibility:visible;opacity:1;isolation:auto;mix-blend-mode:normal;color-interpolation:sRGB;color-interpolation-filters:linearRGB;solid-color:#000000;solid-opacity:1;vector-effect:none;fill:#929292;fill-opacity:1;fill-rule:evenodd;stroke:#3b3b3b;stroke-width:0.21887565;stroke-linecap:butt;stroke-linejoin:miter;stroke-miterlimit:4;stroke-dasharray:none;stroke-dashoffset:0;stroke-opacity:1;color-rendering:auto;image-rendering:auto;shape-rendering:auto;text-rendering:auto;enable-background:accumulate"
     d="m 31.280213,29.08515 c -2.045655,-0.401743 -3.523742,-2.48482 -3.176804,-4.477086 0.377332,-2.1668 2.4015,-3.662095 4.476258,-3.306704 1.723667,0.295251 3.022519,1.594104 3.31777,3.317771 0.35019,2.044393 -1.120722,4.074446 -3.235474,4.465379 -0.636029,0.117576 -0.785964,0.117646 -1.38175,6.42e-4 z"
     id="path828"
     inkscape:connector-curvature="0" /></svg>