<?xml version="1.0" encoding="UTF-8" standalone="no"?>
<svg
   xmlns:osb="http://www.openswatchbook.org/uri/2009/osb"
   xmlns:dc="http://purl.org/dc/elements/1.1/"
   xmlns:cc="http://creativecommons.org/ns#"
   xmlns:rdf="http://www.w3.org/1999/02/22-rdf-syntax-ns#"
   xmlns:svg="http://www.w3.org/2000/svg"
   xmlns="http://www.w3.org/2000/svg"
   xmlns:xlink="http://www.w3.org/1999/xlink"
   xmlns:sodipodi="http://sodipodi.sourceforge.net/DTD/sodipodi-0.dtd"
   xmlns:inkscape="http://www.inkscape.org/namespaces/inkscape"
   width="34"
   height="34"
   id="svg3035"
   version="1.1"
   inkscape:version="0.92.3 (2405546, 2018-03-11)"
   sodipodi:docname="wip.svg">
  <metadata
     id="metadata3045">
    <rdf:RDF>
      <cc:Work
         rdf:about="">
        <dc:format>image/svg+xml</dc:format>
        <dc:type
           rdf:resource="http://purl.org/dc/dcmitype/StillImage" />
        <dc:title />
      </cc:Work>
    </rdf:RDF>
  </metadata>
  <defs
     id="defs3043">
    <linearGradient
       inkscape:collect="always"
       id="linearGradient6563">
      <stop
         id="stop6561"
         offset="0"
         style="stop-color:#0000ff;stop-opacity:0;" />
      <stop
         id="stop6559"
         offset="1"
         style="stop-color:#0000ff;stop-opacity:1;" />
    </linearGradient>
    <linearGradient
       inkscape:collect="always"
       id="linearGradient6532">
      <stop
         style="stop-color:#0000ff;stop-opacity:1;"
         offset="0"
         id="stop6528" />
      <stop
         style="stop-color:#0000ff;stop-opacity:0;"
         offset="1"
         id="stop6530" />
    </linearGradient>
    <linearGradient
       inkscape:collect="always"
       id="linearGradient6481-1">
      <stop
         style="stop-color:#251616;stop-opacity:1"
         offset="0"
         id="stop6477" />
      <stop
         style="stop-color:#fe0b0b;stop-opacity:1"
         offset="1"
         id="stop6479" />
    </linearGradient>
    <linearGradient
       inkscape:collect="always"
       id="linearGradient4888">
      <stop
         style="stop-color:#ffffff;stop-opacity:1"
         offset="0"
         id="stop4884" />
      <stop
         style="stop-color:#fff906;stop-opacity:1"
         offset="1"
         id="stop4886" />
    </linearGradient>
    <marker
       inkscape:stockid="Arrow1Lstart"
       orient="auto"
       refY="0.0"
       refX="0.0"
       id="Arrow1Lstart"
       style="overflow:visible"
       inkscape:isstock="true">
      <path
         id="path4558"
         d="M 0.0,0.0 L 5.0,-5.0 L -12.5,0.0 L 5.0,5.0 L 0.0,0.0 z "
         style="fill-rule:evenodd;stroke:#000000;stroke-width:1pt;stroke-opacity:1;fill:#000000;fill-opacity:1"
         transform="scale(0.8) translate(12.5,0)" />
    </marker>
    <linearGradient
       id="linearGradient3825"
       osb:paint="gradient">
      <stop
         style="stop-color:#000000;stop-opacity:1;"
         offset="0"
         id="stop3827" />
      <stop
         style="stop-color:#000000;stop-opacity:0;"
         offset="1"
         id="stop3829" />
    </linearGradient>
    <radialGradient
       inkscape:collect="always"
       xlink:href="#linearGradient4888"
       id="radialGradient4892"
       cx="-29.09152"
       cy="-2.1065755"
       fx="-29.09152"
       fy="-2.1065755"
       r="11.41907"
       gradientTransform="matrix(3.5202817,-1.2233121,0.36667702,1.0551735,70.77379,-35.712008)"
       gradientUnits="userSpaceOnUse" />
    <radialGradient
       inkscape:collect="always"
       xlink:href="#linearGradient6481-1"
       id="radialGradient6483"
       cx="-63.490948"
       cy="6.9456344"
       fx="-63.490948"
       fy="6.9456344"
       r="19.357778"
       gradientTransform="matrix(1.0045653,0,0,0.99031116,0.28985948,0.06729407)"
       gradientUnits="userSpaceOnUse" />
    <linearGradient
       inkscape:collect="always"
       xlink:href="#linearGradient6532"
       id="linearGradient6534"
       x1="-65.940685"
       y1="28.856502"
       x2="-40.523399"
       y2="28.856502"
       gradientUnits="userSpaceOnUse"
       gradientTransform="rotate(-9.9068517,-45.200191,-7.1314712)" />
    <linearGradient
       inkscape:collect="always"
       xlink:href="#linearGradient6563"
       id="linearGradient6565"
       x1="-41.484261"
       y1="29.002453"
       x2="-15.593419"
       y2="29.002453"
       gradientUnits="userSpaceOnUse"
       gradientTransform="rotate(-9.9068517,-43.201358,5.3716625)" />
  </defs>
  <sodipodi:namedview
     pagecolor="#ffffff"
     bordercolor="#666666"
     borderopacity="1"
     objecttolerance="10"
     gridtolerance="10"
     guidetolerance="10"
     inkscape:pageopacity="0"
     inkscape:pageshadow="2"
     inkscape:window-width="1853"
     inkscape:window-height="1025"
     id="namedview3041"
     showgrid="false"
     inkscape:zoom="5.6568542"
     inkscape:cx="34.484631"
     inkscape:cy="2.9371471"
     inkscape:window-x="67"
     inkscape:window-y="27"
     inkscape:window-maximized="1"
     inkscape:current-layer="svg3035" />
  <g
     id="g6590"
     transform="matrix(0.664349,0,0,0.664349,43.186313,6.8402599)">
    <path
       sodipodi:nodetypes="cscccsc"
       inkscape:connector-curvature="0"
       id="path4880"
       d="m -37.576837,12.106099 c 0,0 -1.536225,6.809621 -4.576414,11.469806 -2.0174,3.092394 -8.370161,14.464599 -8.370161,14.464599 l 6.520731,-4.321815 5.43577,5.437432 c 0,0 -1.289008,-5.142169 -1.012902,-9.916248 0.214167,-3.703081 2.002976,-17.133774 2.002976,-17.133774 z"
       style="fill:url(#linearGradient6534);fill-opacity:1;fill-rule:evenodd;stroke:#000000;stroke-width:0.5;stroke-linecap:butt;stroke-linejoin:miter;stroke-miterlimit:4;stroke-dasharray:none;stroke-opacity:1" />
    <path
       sodipodi:nodetypes="cscccsc"
       inkscape:connector-curvature="0"
       id="path4882"
       d="m -39.711324,12.596637 c 0,0 6.269191,12.293174 8.588796,17.411106 2.302611,5.080436 3.834563,7.195926 3.834563,7.195926 l 0.56351,-8.121863 8.873279,0.782627 c 0,0 -5.421414,-2.415994 -10.803459,-6.183973 -4.275016,-2.992947 -11.056689,-11.083823 -11.056689,-11.083823 z"
       style="opacity:1;vector-effect:none;fill:url(#linearGradient6565);fill-opacity:1;fill-rule:evenodd;stroke:#000000;stroke-width:0.5;stroke-linecap:butt;stroke-linejoin:miter;stroke-miterlimit:4;stroke-dasharray:none;stroke-dashoffset:0;stroke-opacity:1" />
    <path
       transform="translate(21.912524,3.2870378)"
       d="m -49.454155,13.052254 c -0.780058,1.765447 2.127772,4.45414 0.918531,5.960981 -1.209242,1.506841 -4.261671,-0.843751 -5.818099,0.301859 -1.556429,1.14561 -0.432664,4.779241 -2.240303,5.477821 -1.80764,0.69858 -3.227556,-2.816202 -5.155632,-2.61138 -1.928076,0.204822 -2.71171,3.980528 -4.62807,3.68792 -1.91636,-0.292609 -1.430456,-4.008932 -3.19706,-4.800033 -1.766604,-0.791101 -4.424619,2.021779 -5.934086,0.804341 -1.509466,-1.217438 0.845517,-4.222735 -0.30717,-5.773713 -1.152686,-1.550977 -4.835308,-0.375836 -5.536456,-2.179878 -0.701148,-1.804042 2.883242,-3.415597 2.659997,-5.3413521 -0.223244,-1.9257547 -4.029505,-2.7184486 -3.73274,-4.6257952 0.296765,-1.9073466 4.094118,-1.4409965 4.887419,-3.21001774 0.793301,-1.76902126 -2.197219,-4.34720406 -0.99117,-5.86493086 1.206049,-1.5177268 4.328552,0.824511 5.894094,-0.3080435 1.565542,-1.1325546 0.358849,-4.7875586 2.164305,-5.4928706 1.805457,-0.705312 3.322989,2.7474553 5.241774,2.5278376 1.918786,-0.2196177 2.823064,-3.8699786 4.733707,-3.5831426 1.910642,0.286835 1.505176,4.1139274 3.283393,4.8823641 1.778217,0.7684368 4.215558,-2.0805075 5.731975,-0.871623 1.516417,1.2088844 -0.651003,4.1994482 0.498942,5.7524783 1.149945,1.55303007 4.648973,0.3888086 5.351861,2.19509602 0.702889,1.80628738 -2.7042,3.34367048 -2.478948,5.26216988 0.225252,1.9184994 3.839183,2.6082154 3.551497,4.5178689 -0.287686,1.9096538 -4.117702,1.5265948 -4.897761,3.2920428 z"
       inkscape:randomized="-0.005"
       inkscape:rounded="0.33"
       inkscape:flatsided="false"
       sodipodi:arg2="0.67561761"
       sodipodi:arg1="0.41381822"
       sodipodi:r2="19.177555"
       sodipodi:r1="15.402872"
       sodipodi:cy="6.9324894"
       sodipodi:cx="-63.474991"
       sodipodi:sides="12"
       id="path4872"
       style="color:#000000;clip-rule:nonzero;display:inline;overflow:visible;visibility:visible;opacity:1;isolation:auto;mix-blend-mode:normal;color-interpolation:sRGB;color-interpolation-filters:linearRGB;solid-color:#000000;solid-opacity:1;fill:url(#radialGradient6483);fill-opacity:1;fill-rule:evenodd;stroke:#000000;stroke-width:0.81606543;stroke-linecap:round;stroke-linejoin:round;stroke-miterlimit:4;stroke-dasharray:none;stroke-dashoffset:0;stroke-opacity:1;color-rendering:auto;image-rendering:auto;shape-rendering:auto;text-rendering:auto;enable-background:accumulate"
       sodipodi:type="star" />
    <path
       transform="translate(-9.1732755,12.571478)"
       inkscape:transform-center-y="-0.019503418"
       inkscape:transform-center-x="0.003490836"
       d="m -21.885656,2.4011442 c -2.430588,5.3840642 1.788211,0.7862834 -2.729177,4.5818423 -4.517388,3.7955585 0.838266,0.4933298 -4.900124,1.9092277 -5.73839,1.4158978 0.488838,1.8403858 -5.299586,0.7071078 -5.788424,-1.133278 0.14778,0.927085 -4.536332,-2.646918 -4.684111,-3.5740032 -1.157862,1.4647581 -3.860398,-3.7677665 -2.702537,-5.2325246 -0.578072,0.6577233 -0.753129,-5.2476214 -0.175058,-5.9053447 -1.978584,0.1148894 0.455693,-5.2663032 2.434278,-5.3811929 -0.897278,-0.00916 3.642585,-3.7972429 4.539862,-3.788083 -1.256061,-1.548826 4.457072,-3.004387 5.713133,-1.45556 -0.559806,-0.680661 5.227745,0.455548 5.787551,1.13621 0.455109,-1.921999 5.149709,1.645104 4.6946,3.5671028 0.195005,-0.770315 2.898196,4.4588971 2.703192,5.229212 1.756809,-0.9484327 1.903871,4.9421263 0.147061,5.8905589 0.774463,-0.3536784 -1.656125,5.0303858 z"
       inkscape:randomized="-0.005"
       inkscape:rounded="1.11"
       inkscape:flatsided="false"
       sodipodi:arg2="0.87246787"
       sodipodi:arg1="0.42366892"
       sodipodi:r2="12.172397"
       sodipodi:r1="11.563777"
       sodipodi:cy="-2.3208363"
       sodipodi:cx="-32.418301"
       sodipodi:sides="7"
       id="path4874"
       style="color:#000000;clip-rule:nonzero;display:inline;overflow:visible;visibility:visible;opacity:1;isolation:auto;mix-blend-mode:normal;color-interpolation:sRGB;color-interpolation-filters:linearRGB;solid-color:#000000;solid-opacity:1;fill:url(#radialGradient4892);fill-opacity:1;fill-rule:evenodd;stroke:#000000;stroke-width:0.73846543;stroke-linecap:round;stroke-linejoin:round;stroke-miterlimit:4;stroke-dasharray:none;stroke-dashoffset:0;stroke-opacity:1;color-rendering:auto;image-rendering:auto;shape-rendering:auto;text-rendering:auto;enable-background:accumulate"
       sodipodi:type="star" />
    <g
       id="text4878"
       style="font-style:normal;font-variant:normal;font-weight:bold;font-stretch:normal;font-size:9.2589159px;line-height:125%;font-family:'Comic Sans MS';-inkscape-font-specification:'Comic Sans MS Bold';letter-spacing:0px;word-spacing:0px;fill:#000000;fill-opacity:1;stroke:none;stroke-width:0.89999998;stroke-linecap:butt;stroke-linejoin:miter;stroke-miterlimit:4;stroke-dasharray:none;stroke-opacity:1"
       transform="rotate(-13.144544)"
       aria-label="WIP">
      <path
         inkscape:connector-curvature="0"
         id="path6575"
         style="fill:#000000;fill-opacity:1;stroke:#000000;stroke-width:0.5;stroke-miterlimit:4;stroke-dasharray:none;stroke-opacity:1"
         d="m -43.608212,-1.7888078 q -0.07686,0.1853592 -0.180838,0.4566165 -0.07686,0.2622154 -0.248653,0.77760392 -0.257694,0.66458039 -0.818292,1.93496908 -0.574162,1.2929932 -0.822814,1.9304478 -0.185359,0.4747003 -0.348114,0.7595205 -0.212485,0.3752392 -0.646496,0.3752392 -0.257695,0 -0.465659,-0.1401496 Q -47.383209,4.1426852 -47.401293,3.8759489 -47.609257,3.3560391 -47.663508,3.0260094 -47.86243,2.058525 -48.215065,0.11903492 -48.508927,1.0277471 -48.847999,1.7511 q -0.506347,1.0850292 -0.66458,1.7044001 0.04069,0.099461 0.04069,0.2124849 0,0.2802992 -0.248653,0.4566164 -0.217006,0.1491915 -0.479221,0.1491915 -0.33003,0 -0.547036,-0.1672753 -0.235089,-0.1853592 -0.244131,-0.506347 l -0.14015,-0.5289517 q -0.149191,-0.705269 -0.488263,-2.10676532 -0.298383,-1.07146641 -0.999131,-3.05164438 -0.04069,-0.1130239 -0.04069,-0.2260477 0,-0.2712573 0.207964,-0.4294908 0.185359,-0.1446705 0.447575,-0.1446705 0.343592,0 0.547035,0.2893411 0.113024,0.1582334 0.257695,0.5741613 0.443053,1.27490895 0.999131,3.716225 0.361676,-0.88158656 0.736915,-2.07963965 0.302904,-0.97652595 0.492785,-1.38793285 0.452095,-0.9855682 0.922274,-0.9855682 0.443054,0 0.646497,0.4837422 0.09946,0.2305687 0.194401,0.8363767 0.02713,0.1853591 0.117545,0.90871159 0.09494,0.77760427 0.56964,2.83011821 0.479221,-1.1211969 1.288472,-3.23248317 0.04973,-0.12658643 0.23509,-0.83185543 0.131108,-0.5063469 0.33003,-0.800209 0.217006,-0.3164669 0.578682,-0.3164669 0.275778,0 0.456616,0.1717963 0.180839,0.1672754 0.180839,0.4340117 0,0.09494 -0.158234,0.4882631 z" />
      <path
         id="path6577"
         style="stroke:#000000;stroke-width:0.5;stroke-miterlimit:4;stroke-dasharray:none;stroke-opacity:1"
         d="m -38.672635,-1.4971223 q -0.23509,0 -1.288473,-0.1265867 -0.06329,0.83185569 -0.06329,2.21074697 l -0.0045,2.02990883 q 0.601287,-0.013563 1.225179,-0.013563 0.271257,0 0.447574,0.1808382 0.180839,0.1808382 0.180839,0.4340117 0,0.2531735 -0.180839,0.4340117 -0.176317,0.1763172 -0.447574,0.1763172 -0.253174,0 -0.759521,0.013563 -0.506347,0.00904 -0.75952,0.00904 -0.298383,0 -0.895149,0.076856 -0.596766,0.081377 -0.895149,0.081377 -0.271257,0 -0.452096,-0.1763172 -0.176317,-0.1808382 -0.176317,-0.4340117 0,-0.2531735 0.176317,-0.4340117 0.180839,-0.1808382 0.452096,-0.1808382 0.307425,0 0.809251,-0.067814 -0.009,-0.5334727 -0.009,-2.04347168 0,-1.22969977 0.09042,-2.34637562 l -0.981047,0.027126 q -0.271258,0 -0.456617,-0.1763173 -0.180838,-0.1763172 -0.180838,-0.4385326 0,-0.2667363 0.180838,-0.4340117 0.167276,-0.1537125 0.411407,-0.1763172 0.397844,-0.036168 1.383412,-0.036168 0.886108,0 2.283083,0.1898801 0.556077,0.076856 0.556077,0.6238918 0,0.2893412 -0.226048,0.4566165 -0.185359,0.1401496 -0.420448,0.1401496 z"
         inkscape:connector-curvature="0" />
      <path
         inkscape:connector-curvature="0"
         id="path6579"
         style="stroke:#000000;stroke-width:0.5;stroke-miterlimit:4;stroke-dasharray:none;stroke-opacity:1"
         d="m -35.7802,1.2551453 q -0.07686,0 -0.37976,-0.031647 -0.02713,0.6329337 -0.02713,2.0796393 0,0.2396106 -0.167275,0.4114069 -0.167276,0.1717963 -0.42497,0.1717963 -0.257695,0 -0.429491,-0.1717963 -0.167275,-0.1717963 -0.167275,-0.4114069 V 2.0417915 q 0,-0.700748 0.09042,-2.07511804 0.0859,-1.39697536 0.09042,-2.08416056 0.0045,-1.1754483 0.660059,-1.1257178 0.153713,-0.040689 0.42497,-0.058772 0.271258,-0.022605 0.66006,-0.022605 0.886107,0 1.663711,0.5741613 0.863503,0.6419756 0.863503,1.5642504 0,1.15736481 -0.917754,1.84002902 -0.813772,0.60128668 -1.93949,0.60128668 z m 0.226048,-3.413321 q -0.144671,0 -0.257695,0.00452 -0.108503,0 -0.185359,0.00904 0,0.2124848 -0.0045,0.6374546 -0.009,0.5018263 -0.0859,1.56425076 0.230569,0.0361676 0.307425,0.0361676 0.705269,0 1.170927,-0.33455067 0.497305,-0.35715545 0.497305,-0.94487989 0,-0.3842812 -0.465658,-0.6826642 -0.447575,-0.2893411 -0.976526,-0.2893411 z" />
    </g>
  </g>
</svg>
